<svg width="395" height="293" viewBox="0 0 395 293" fill="none" xmlns="http://www.w3.org/2000/svg">
<g clip-path="url(#clip0_7_124)">
<mask id="mask0_7_124" style="mask-type:luminance" maskUnits="userSpaceOnUse" x="0" y="0" width="395" height="293">
<path d="M394.711 0H0V292.638H394.711V0Z" fill="white"/>
</mask>
<g mask="url(#mask0_7_124)">
<path d="M258.075 32.0715H15.679C8.3211 32.0715 2.35632 38.0264 2.35632 45.3721V105.384C2.35632 112.73 8.3211 118.685 15.679 118.685H258.075C265.433 118.685 271.398 112.73 271.398 105.384V45.3721C271.398 38.0264 265.433 32.0715 258.075 32.0715Z" fill="#1DCDFF"/>
<path d="M271.398 86.2827V113.498C271.398 116.365 265.613 118.686 258.517 118.686H15.253C8.13671 118.686 2.37213 116.365 2.37213 113.498V97.7454C18.7717 102.083 37.4435 105.007 56.5939 106.824C79.7364 109.019 103.589 109.66 127.342 109.754C155.744 109.87 184.619 109.182 211.354 105.333C235.853 101.82 258.57 95.33 271.398 86.2827Z" fill="#1AB5E1"/>
<path d="M99.6284 32.2934C74.2821 34.0052 39.0792 32.3512 17.2043 38.647C6.83756 41.6242 4.27083 47.4107 2.60352 52.1943L2.62981 38.8045C2.62981 37.0875 2.77708 35.2181 5.52791 33.9054C8.93091 32.2881 14.9111 32.1621 20.176 32.1674C46.0272 32.1726 74.2874 31.0384 99.6284 32.2934Z" fill="#4ED9FF"/>
<path d="M257.823 32.1781H15.4266C8.06864 32.1781 2.10388 38.133 2.10388 45.4787V105.491C2.10388 112.837 8.06864 118.792 15.4266 118.792H257.823C265.181 118.792 271.146 112.837 271.146 105.491V45.4787C271.146 38.133 265.181 32.1781 257.823 32.1781Z" stroke="#314E5D" stroke-width="8" stroke-miterlimit="10"/>
<path d="M379.573 166.494H102.5C95.1424 166.494 89.1774 172.449 89.1774 179.795V239.807C89.1774 247.153 95.1424 253.108 102.5 253.108H379.573C386.931 253.108 392.896 247.153 392.896 239.807V179.795C392.896 172.449 386.931 166.494 379.573 166.494Z" fill="#1DCDFF"/>
<path d="M392.896 220.706V247.921C392.896 250.788 386.385 253.109 378.353 253.109H103.72C95.6889 253.109 89.1774 250.788 89.1774 247.921V232.168C107.691 236.506 128.772 239.43 150.389 241.247C176.488 243.442 203.438 244.083 230.257 244.177C262.309 244.293 294.919 243.605 325.099 239.756C352.77 236.243 378.416 229.753 392.896 220.706Z" fill="#1AB5E1"/>
<path d="M198.983 166.716C170.371 168.428 130.608 166.774 105.935 173.07C94.2214 176.053 91.3339 181.839 89.4457 186.623L89.4825 173.228C89.4825 171.511 89.6456 169.641 92.754 168.329C96.5988 166.711 103.347 166.585 109.29 166.59C138.471 166.596 170.381 165.462 198.983 166.716Z" fill="#4ED9FF"/>
<path d="M379.284 166.601H102.211C94.8532 166.601 88.8882 172.556 88.8882 179.901V239.914C88.8882 247.26 94.8532 253.214 102.211 253.214H379.284C386.642 253.214 392.607 247.26 392.607 239.914V179.901C392.607 172.556 386.642 166.601 379.284 166.601Z" stroke="#314E5D" stroke-width="8" stroke-miterlimit="10"/>
<path d="M341.977 2.57825H54.7583C50.1512 2.57825 46.4164 6.30677 46.4164 10.9062V280.618C46.4164 285.218 50.1512 288.946 54.7583 288.946H341.977C346.584 288.946 350.319 285.218 350.319 280.618V10.9062C350.319 6.30677 346.584 2.57825 341.977 2.57825Z" fill="white"/>
<path d="M351.634 14.1195V56.3001H47.7366V14.1195C47.7366 7.10433 51.471 1.4071 56.0784 1.4071H343.292C347.9 1.4071 351.634 7.10433 351.634 14.1195Z" fill="#DCEAEF"/>
<path d="M341.614 2.10034H54.3953C49.7883 2.10034 46.0536 5.8289 46.0536 10.4283V282.209C46.0536 286.809 49.7883 290.537 54.3953 290.537H341.614C346.221 290.537 349.956 286.809 349.956 282.209V10.4283C349.956 5.8289 346.221 2.10034 341.614 2.10034Z" stroke="#314E5D" stroke-width="8" stroke-miterlimit="10"/>
<path d="M74.6871 37.9214C78.1726 37.9214 80.9987 35.1003 80.9987 31.6203C80.9987 28.1403 78.1726 25.3192 74.6871 25.3192C71.2015 25.3192 68.3755 28.1403 68.3755 31.6203C68.3755 35.1003 71.2015 37.9214 74.6871 37.9214Z" fill="#EEA248"/>
<path d="M95.1998 37.9214C98.6853 37.9214 101.511 35.1003 101.511 31.6203C101.511 28.1403 98.6853 25.3192 95.1998 25.3192C91.7142 25.3192 88.8882 28.1403 88.8882 31.6203C88.8882 35.1003 91.7142 37.9214 95.1998 37.9214Z" fill="#EEA248"/>
<path d="M115.712 37.9214C119.198 37.9214 122.024 35.1003 122.024 31.6203C122.024 28.1403 119.198 25.3192 115.712 25.3192C112.227 25.3192 109.401 28.1403 109.401 31.6203C109.401 35.1003 112.227 37.9214 115.712 37.9214Z" fill="#EEA248"/>
<path d="M102.474 118.082C102.474 112.075 104.536 108.704 108.491 108.704C112.446 108.704 114.508 112.075 114.508 118.082C114.508 124.089 112.446 127.487 108.491 127.487C104.536 127.487 102.474 124.115 102.474 118.082ZM112.004 118.082C112.004 112.784 110.716 110.626 108.496 110.626C106.277 110.626 104.988 112.784 104.988 118.082C104.988 123.38 106.308 125.565 108.496 125.565C110.684 125.565 112.004 123.396 112.004 118.082ZM108.491 116.37C108.834 116.367 109.171 116.466 109.458 116.654C109.745 116.844 109.969 117.113 110.102 117.43C110.235 117.746 110.271 118.094 110.205 118.431C110.138 118.767 109.973 119.077 109.73 119.319C109.487 119.562 109.177 119.727 108.84 119.793C108.503 119.859 108.154 119.823 107.837 119.691C107.521 119.558 107.25 119.334 107.061 119.048C106.873 118.761 106.773 118.425 106.776 118.082C106.775 117.857 106.818 117.634 106.904 117.425C106.99 117.217 107.116 117.028 107.275 116.868C107.435 116.709 107.625 116.583 107.833 116.497C108.042 116.412 108.265 116.369 108.491 116.37Z" fill="#426372"/>
<path d="M124.233 111.682L119.878 114.308L118.716 112.622L124.501 109.01H126.637V125.214H130.355V127.167H119.778V125.214H124.238V111.682H124.233Z" fill="#426372"/>
<path d="M160.477 111.471L161.64 113.288L152.404 118.927L161.64 124.588L160.372 126.357L150.31 120.088V117.746L160.477 111.471Z" fill="#426372"/>
<path d="M175.089 127.171V118.67H168.488V127.176H165.984V109.024H168.488V116.611H175.083V109.024H177.587V127.176L175.089 127.171Z" fill="#426372"/>
<path d="M188.822 111.131V127.177H186.318V111.131H180.701V109.03H194.528L194.265 111.131H188.822Z" fill="#426372"/>
<path d="M208.214 127.172L207.688 117.873C207.556 115.316 207.556 112.37 207.583 111.787H207.499L204.601 123.922H202.197L199.188 111.777H199.083C199.083 112.381 199.136 115.521 199.031 117.863L198.584 127.162H196.264L197.316 109.01H200.64L203.438 121.129H203.543L206.21 109.01H209.56L210.612 127.162L208.214 127.172Z" fill="#426372"/>
<path d="M214.799 127.171V109.024H217.303V124.971H225.56L225.271 127.155L214.799 127.171Z" fill="#426372"/>
<path d="M240.761 117.741V120.083L230.704 126.353L229.437 124.583L238.673 118.923L229.437 113.283L230.599 111.467L240.761 117.741Z" fill="#426372"/>
<path d="M102.474 149.682C102.474 143.675 104.536 140.303 108.491 140.303C112.446 140.303 114.508 143.675 114.508 149.682C114.508 155.689 112.446 159.102 108.491 159.102C104.536 159.102 102.474 155.71 102.474 149.682ZM112.004 149.682C112.004 144.383 110.716 142.225 108.496 142.225C106.277 142.225 104.988 144.383 104.988 149.682C104.988 154.98 106.308 157.164 108.496 157.164C110.684 157.164 112.004 155.001 112.004 149.682ZM108.491 147.97C108.834 147.967 109.171 148.066 109.458 148.254C109.745 148.443 109.969 148.713 110.102 149.029C110.235 149.346 110.271 149.694 110.205 150.031C110.138 150.367 109.973 150.677 109.73 150.919C109.487 151.161 109.177 151.326 108.84 151.392C108.503 151.458 108.154 151.423 107.837 151.29C107.521 151.158 107.25 150.934 107.061 150.647C106.873 150.361 106.773 150.024 106.776 149.682C106.774 149.456 106.817 149.232 106.903 149.023C106.988 148.815 107.114 148.625 107.273 148.465C107.433 148.305 107.623 148.178 107.832 148.093C108.041 148.007 108.265 147.963 108.491 147.965V147.97Z" fill="#426372"/>
<path d="M121.44 156.739H129.698L129.409 158.766H118.589V156.844C124.869 150.627 126.8 148.123 126.8 145.382C126.826 144.971 126.763 144.56 126.617 144.176C126.47 143.792 126.243 143.443 125.951 143.154C125.658 142.864 125.308 142.641 124.922 142.498C124.535 142.355 124.123 142.296 123.712 142.326C122.208 142.326 121.177 142.882 120.067 144.274L118.379 143.087C119.804 141.323 121.598 140.293 123.844 140.293C127.168 140.293 129.309 142.394 129.309 145.303C129.303 148.469 126.794 151.63 121.44 156.739Z" fill="#426372"/>
<path d="M160.477 143.066L161.64 144.883L152.404 150.523L161.64 156.183L160.372 157.953L150.316 151.683V149.336L160.477 143.066Z" fill="#426372"/>
<path d="M171.312 158.772H166.3V140.62H170.939C174.184 140.62 177.434 141.67 177.434 145.204C177.454 146.118 177.147 147.009 176.569 147.719C175.991 148.429 175.179 148.911 174.279 149.079V149.184C176.098 149.525 178.239 150.58 178.239 153.584C178.197 157.559 174.715 158.772 171.312 158.772ZM171.365 142.594H168.803V148.281H171.575C173.679 148.281 174.852 147.409 174.852 145.356C174.852 143.303 173.532 142.594 171.365 142.594ZM171.759 150.286H168.803V156.745H171.654C173.427 156.745 175.562 156.22 175.562 153.636C175.562 151.053 173.847 150.286 171.759 150.286Z" fill="#426372"/>
<path d="M187.612 159.103C183.152 159.103 180.858 155.39 180.858 149.751C180.858 144.222 183.152 140.299 187.612 140.299C192.072 140.299 194.365 144.069 194.365 149.704C194.371 155.238 192.067 159.103 187.612 159.103ZM187.612 142.373C184.656 142.373 183.467 144.957 183.467 149.725C183.467 154.492 184.735 157.023 187.612 157.023C190.568 157.023 191.751 154.492 191.751 149.672C191.751 144.852 190.568 142.352 187.612 142.352V142.373Z" fill="#426372"/>
<path d="M201.876 158.772H197.626V140.62H201.587C205.889 140.62 210.16 142.069 210.16 149.604C210.16 157.139 205.731 158.772 201.876 158.772ZM202.144 142.625H200.14V156.803H202.171C204.758 156.803 207.499 155.485 207.499 149.614C207.499 143.439 204.601 142.62 202.144 142.62V142.625Z" fill="#426372"/>
<path d="M220.527 151.787V158.771H217.992V151.813L211.869 140.613H214.641L219.291 149.487H219.375L224.045 140.613H226.675L220.527 151.787Z" fill="#426372"/>
<path d="M240.761 149.335V151.677L230.704 157.946L229.437 156.177L238.673 150.516L229.437 144.877L230.599 143.06L240.761 149.335Z" fill="#426372"/>
<path d="M102.474 181.277C102.474 175.27 104.536 171.899 108.491 171.899C112.446 171.899 114.508 175.27 114.508 181.277C114.508 187.284 112.446 190.682 108.491 190.682C104.536 190.682 102.474 187.311 102.474 181.277ZM112.004 181.277C112.004 175.979 110.716 173.821 108.496 173.821C106.277 173.821 104.988 175.979 104.988 181.277C104.988 186.575 106.308 188.76 108.496 188.76C110.684 188.76 112.004 186.596 112.004 181.277ZM108.491 179.581C108.834 179.578 109.171 179.677 109.458 179.866C109.745 180.054 109.969 180.324 110.102 180.64C110.235 180.957 110.271 181.305 110.205 181.642C110.138 181.978 109.973 182.288 109.73 182.53C109.487 182.773 109.177 182.938 108.84 183.004C108.503 183.07 108.154 183.034 107.837 182.902C107.521 182.769 107.25 182.545 107.061 182.259C106.873 181.972 106.773 181.636 106.776 181.293C106.775 181.068 106.818 180.845 106.904 180.636C106.99 180.428 107.116 180.239 107.275 180.08C107.435 179.92 107.625 179.794 107.833 179.709C108.042 179.623 108.265 179.58 108.491 179.581Z" fill="#426372"/>
<path d="M123.602 190.68C122.535 190.713 121.474 190.51 120.494 190.087C119.514 189.664 118.639 189.031 117.932 188.233L119.51 186.915C120.007 187.486 120.624 187.942 121.316 188.251C122.008 188.56 122.759 188.716 123.518 188.706C125.969 188.706 127.452 187.335 127.452 185.119C127.452 182.588 125.874 181.748 123.77 181.748H122.371L122.66 179.879H123.602C125.343 179.879 126.979 178.907 126.979 176.797C126.979 174.87 125.501 173.814 123.628 173.814C122.05 173.814 120.998 174.371 119.804 175.473L118.484 174.024C119.886 172.647 121.777 171.879 123.744 171.887C127.226 171.887 129.393 173.987 129.393 176.445C129.394 177.436 129.05 178.398 128.42 179.164C127.79 179.93 126.912 180.454 125.937 180.646V180.751C127.056 180.804 128.108 181.296 128.865 182.12C129.621 182.944 130.021 184.033 129.977 185.151C129.987 188.28 127.426 190.68 123.602 190.68Z" fill="#426372"/>
<path d="M160.477 174.66L161.64 176.477L152.404 182.116L161.64 187.777L160.367 189.557L150.31 183.256V180.914L160.477 174.66Z" fill="#426372"/>
<path d="M175.089 190.366V181.86H168.488V190.366H165.984V172.229H168.488V179.817H175.083V172.229H177.587V190.382H175.083L175.089 190.366Z" fill="#426372"/>
<path d="M185.14 174.209V180.137H191.841V182.138H185.14V188.381H193.35V190.355H182.652V172.229H193.171L192.882 174.23L185.14 174.209Z" fill="#426372"/>
<path d="M206.867 185.808H199.867L198.468 190.366H195.964L201.85 172.229H205.006L210.912 190.366H208.282L206.867 185.808ZM200.482 183.781H206.268L203.443 174.482H203.338L200.482 183.781Z" fill="#426372"/>
<path d="M217.702 190.366H213.453V172.229H217.413C221.715 172.229 225.986 173.679 225.986 181.214C225.986 188.749 221.552 190.366 217.702 190.366ZM217.965 174.214H215.961V188.392H217.992C220.579 188.392 223.32 187.074 223.32 181.203C223.325 175.033 220.448 174.209 217.965 174.209V174.214Z" fill="#426372"/>
<path d="M232.629 174.209V180.137H239.314V182.138H232.629V188.381H240.84V190.355H230.126V172.229H240.645L240.356 174.23L232.629 174.209Z" fill="#426372"/>
<path d="M252.889 182.358L258.217 190.366H255.235L250.36 182.673H248.04V190.366H245.536V172.229H250.312C254.851 172.229 257.223 173.962 257.223 177.365C257.239 180.064 255.34 181.723 252.889 182.358ZM250.565 174.162H248.061V180.746H250.596C253.131 180.746 254.578 179.801 254.578 177.349C254.567 175.081 253.279 174.162 250.559 174.162H250.565Z" fill="#426372"/>
<path d="M272.408 180.934V183.255L262.352 189.556L261.084 187.787L270.32 182.126L261.084 176.487L262.246 174.67L272.408 180.934Z" fill="#426372"/>
<path d="M102.474 212.871C102.474 206.864 104.536 203.493 108.491 203.493C112.446 203.493 114.503 206.885 114.503 212.871C114.503 218.857 112.441 222.275 108.486 222.275C104.53 222.275 102.474 218.904 102.474 212.871ZM112.004 212.871C112.004 207.573 110.716 205.415 108.496 205.415C106.277 205.415 104.988 207.573 104.988 212.871C104.988 218.169 106.308 220.353 108.496 220.353C110.684 220.353 112.004 218.19 112.004 212.871ZM108.491 211.159C108.834 211.157 109.17 211.257 109.457 211.446C109.743 211.635 109.966 211.906 110.099 212.222C110.231 212.538 110.266 212.887 110.199 213.223C110.132 213.559 109.966 213.868 109.723 214.11C109.48 214.352 109.17 214.516 108.833 214.582C108.496 214.648 108.147 214.612 107.831 214.479C107.514 214.346 107.244 214.122 107.056 213.836C106.867 213.55 106.768 213.214 106.771 212.871C106.769 212.645 106.813 212.421 106.899 212.213C106.985 212.004 107.112 211.815 107.272 211.655C107.432 211.496 107.622 211.37 107.831 211.285C108.041 211.2 108.265 211.157 108.491 211.159Z" fill="#426372"/>
<path d="M128.009 217.613V221.961H125.664V217.613H118.221V215.902L123.549 203.489L125.58 204.334L120.772 215.692H125.653L125.895 210.966H127.999V215.692H130.292V217.619L128.009 217.613Z" fill="#426372"/>
<path d="M160.477 206.256L161.64 208.073L152.404 213.712L161.64 219.372L160.372 221.142L150.316 214.872V212.531L160.477 206.256Z" fill="#426372"/>
<path d="M167.147 224.702L165.19 223.83L176.456 200.621L178.386 201.545L167.147 224.702Z" fill="#426372"/>
<path d="M190.925 221.961V213.455H184.309V221.961H181.805V203.809H184.309V211.396H190.925V203.809H193.429V221.961H190.925Z" fill="#426372"/>
<path d="M200.982 205.836V211.764H207.683V213.765H200.982V220.008H209.192V221.982H198.478V203.809H208.998L208.708 205.809L200.982 205.836Z" fill="#426372"/>
<path d="M222.689 217.387H215.693L214.294 221.944H211.791L217.676 203.792H220.832L226.717 221.944H224.088L222.689 217.387ZM216.303 215.36H222.089L219.264 206.06H219.154L216.303 215.36Z" fill="#426372"/>
<path d="M233.529 221.961H229.279V203.809H233.239C237.542 203.809 241.813 205.258 241.813 212.793C241.813 220.328 237.384 221.961 233.529 221.961ZM233.792 205.836H231.788V220.013H233.818C236.406 220.013 239.146 218.695 239.146 212.825C239.146 206.629 236.269 205.836 233.792 205.836Z" fill="#426372"/>
<path d="M248.45 205.836V211.764H255.151V213.765H248.45V220.008H256.671V221.982H245.947V203.809H256.466L256.145 205.836H248.45Z" fill="#426372"/>
<path d="M268.71 213.948L274.028 221.961H271.046L266.191 214.269H263.866V221.961H261.363V203.809H266.139C270.678 203.809 273.05 205.542 273.05 208.944C273.065 211.659 271.167 213.318 268.71 213.948ZM266.391 205.757H263.887V212.347H266.423C268.958 212.347 270.404 211.402 270.404 208.949C270.399 206.681 269.105 205.757 266.386 205.757H266.391Z" fill="#426372"/>
<path d="M288.229 212.531V214.872L278.173 221.142L276.905 219.372L286.125 213.712L276.889 208.073L278.052 206.256L288.229 212.531Z" fill="#426372"/>
</g>
</g>
<defs>
<clipPath id="clip0_7_124">
<rect width="395" height="293" fill="white"/>
</clipPath>
</defs>
</svg>
