<svg width="326" height="196" viewBox="0 0 326 196" fill="none" xmlns="http://www.w3.org/2000/svg">
<path d="M322.718 86.4391L325.46 86.6556L322.718 86.4391ZM33.9177 142.735L32.072 140.697L33.9177 142.735ZM21.9065 195.293C23.1727 196.131 24.8791 195.785 25.7177 194.518L39.3839 173.884C40.2225 172.617 39.8758 170.911 38.6096 170.072C37.3433 169.234 35.637 169.58 34.7983 170.847L22.6506 189.189L4.30852 177.041C3.04226 176.202 1.33591 176.549 0.49729 177.815C-0.341333 179.082 0.00533295 180.788 1.27159 181.627L21.9065 195.293ZM26.1199 192.452C25.086 187.364 24.2785 179.161 25.067 170.637L19.5904 170.131C18.7472 179.246 19.6009 187.99 20.73 193.548L26.1199 192.452ZM26.2106 163.113C27.7871 155.882 30.762 149.302 35.7634 144.774L32.072 140.697C25.9147 146.272 22.5518 154.075 20.8368 161.941L26.2106 163.113ZM35.7634 144.774C39.7746 141.142 45.7058 138.248 53.0256 136.037L51.4355 130.772C43.7325 133.098 36.9331 136.296 32.072 140.697L35.7634 144.774ZM59.8429 134.259C72.0926 131.513 86.5558 130.422 100.434 130.328L100.397 124.828C86.3111 124.923 71.4181 126.028 58.6398 128.892L59.8429 134.259ZM107.623 130.366C114.956 130.492 121.939 130.875 128.119 131.401L128.586 125.921C122.286 125.384 115.178 124.995 107.717 124.867L107.623 130.366ZM128.119 131.401C132.041 131.736 138.282 132.47 146.302 133.338L146.894 127.87C138.973 127.013 132.591 126.263 128.586 125.921L128.119 131.401ZM152.72 134.018C163.251 135.105 175.934 136.263 189.571 137L189.868 131.508C176.353 130.777 163.767 129.629 153.285 128.547L152.72 134.018ZM196.044 137.313C208.064 137.826 220.675 137.968 233.102 137.418L232.859 131.924C220.63 132.465 208.184 132.326 196.278 131.818L196.044 137.313ZM239.598 137.065C252.494 136.227 265.092 134.57 276.485 131.709L275.146 126.375C264.171 129.131 251.922 130.753 239.242 131.577L239.598 137.065ZM282.818 129.953C296.201 125.866 307.757 119.783 315.498 110.829L311.337 107.232C304.539 115.096 294.08 120.763 281.211 124.693L282.818 129.953ZM319.564 105.275C322.86 99.8806 324.904 93.6942 325.46 86.6556L319.977 86.2227C319.487 92.428 317.701 97.7755 314.871 102.407L319.564 105.275ZM325.46 86.6556C325.946 80.5017 325.809 74.7137 325.14 69.2776L319.681 69.9497C320.303 75.0036 320.435 80.421 319.977 86.2227L325.46 86.6556ZM324.155 63.2521C321.601 50.7913 316.17 40.4412 309.249 31.9744L304.99 35.4552C311.4 43.297 316.407 52.8451 318.767 64.3566L324.155 63.2521ZM305.198 27.3988C296.694 18.5098 286.593 12.0379 276.963 7.57433L274.65 12.5644C283.796 16.8036 293.29 22.9081 301.224 31.201L305.198 27.3988ZM271.399 5.18919C265.366 2.80878 259.648 1.20836 254.771 0.296819L253.76 5.70318C258.275 6.54703 263.656 8.04682 269.38 10.3053L271.399 5.18919Z" fill="#4F4F4F"/>
</svg>
