<svg width="129" height="156" viewBox="0 0 129 156" fill="none" xmlns="http://www.w3.org/2000/svg">
<g clip-path="url(#clip0_7_73)">
<mask id="mask0_7_73" style="mask-type:luminance" maskUnits="userSpaceOnUse" x="0" y="0" width="129" height="156">
<path d="M71.5704 0.194083L0.180214 33.4839L56.8697 155.055L128.26 121.765L71.5704 0.194083Z" fill="white"/>
</mask>
<g mask="url(#mask0_7_73)">
<path d="M66.8062 121.233L68.5383 124.947C68.8397 125.599 69.3279 126.147 69.9412 126.521C70.5545 126.896 71.2651 127.079 71.9827 127.049C72.405 127.033 72.8915 127.01 73.4066 126.951L73.8806 127.385L75.2228 130.264C75.4551 130.765 75.8312 131.186 76.3033 131.473C76.7753 131.76 77.3221 131.901 77.8741 131.876L78.8112 131.801L79.1403 132.507C80.3349 134.793 82.3648 136.53 84.8077 137.357C87.2508 138.184 89.9186 138.038 92.2561 136.948C94.5936 135.858 96.421 133.908 97.3573 131.505C98.2942 129.102 98.2683 126.43 97.2851 124.046L97.2097 123.108L97.653 122.653C98.0265 122.246 98.2706 121.737 98.3538 121.191C98.4374 120.645 98.3565 120.086 98.1218 119.586L96.7882 116.726L96.8835 116.93L96.5977 116.317L97.8622 115.004C98.3467 114.473 98.6624 113.811 98.7703 113.101C98.8779 112.391 98.7718 111.664 98.4662 111.014L96.7342 107.3L66.8062 121.233Z" fill="#D9E1E4"/>
<path d="M89.9019 131.827C86.9623 133.201 83.811 134.067 80.5819 134.387C80.3192 134.399 80.0621 134.309 79.8636 134.136C79.6652 133.963 79.5408 133.721 79.5162 133.459C79.5044 133.197 79.5958 132.94 79.7708 132.745C79.9457 132.549 80.1905 132.43 80.4525 132.412C86.1838 131.828 91.5499 129.326 95.6815 125.311C95.7698 125.214 95.8769 125.137 95.9956 125.083C96.1149 125.028 96.2431 124.998 96.3741 124.994C96.5045 124.99 96.635 125.012 96.7571 125.059C96.8791 125.106 96.9906 125.176 97.0851 125.267C97.2749 125.446 97.3871 125.691 97.399 125.952C97.4105 126.212 97.3204 126.467 97.1481 126.662C95.0866 128.833 92.6266 130.586 89.9019 131.827Z" fill="#94B5BF"/>
<path d="M84.4436 119.345C79.2958 121.767 73.7778 123.308 68.1199 123.905C67.8581 123.922 67.6002 123.834 67.4028 123.661C67.2056 123.488 67.0852 123.244 67.068 122.982C67.0507 122.72 67.1383 122.462 67.3114 122.265C67.4844 122.068 67.7287 121.947 67.9905 121.93C68.1391 121.861 84.9311 120.633 95.6625 109.026C95.7525 108.932 95.8597 108.857 95.9786 108.805C96.0978 108.753 96.2259 108.724 96.3556 108.721C96.4858 108.719 96.6148 108.741 96.7358 108.788C96.8571 108.836 96.9675 108.906 97.0614 108.996C97.1554 109.086 97.2306 109.193 97.2829 109.312C97.3351 109.431 97.3634 109.559 97.3664 109.689C97.3694 109.819 97.3464 109.948 97.2994 110.069C97.2525 110.19 97.1819 110.301 97.0919 110.395C93.4928 114.166 89.1976 117.205 84.4436 119.345Z" fill="#94B5BF"/>
<path d="M96.1742 116.379L96.4601 116.992L96.3647 116.788L97.3001 118.794L97.0079 119.088C93.9916 122.122 90.5012 124.643 86.6738 126.553C82.8352 128.246 78.7473 129.305 74.5694 129.687L73.5214 127.44L73.2803 127.214C77.4641 126.857 81.5601 125.811 85.4019 124.116L96.1742 116.379Z" fill="#94B5BF"/>
<path d="M97.881 103.99L94.5295 96.8029C94.5295 96.8029 87.4663 83.8855 89.0085 71.0471C90.5512 58.2087 93.354 49.5759 86.7637 35.4429C80.1733 21.3097 58.8364 7.36037 36.3458 17.8479C13.8553 28.3354 10.8074 53.6555 17.3978 67.7887C23.9882 81.9217 32.3744 85.3598 43.2477 92.3858C49.6147 96.4525 54.6173 102.334 57.6103 109.271L62.8064 120.414C62.9494 120.734 63.1818 121.007 63.4757 121.199C63.7698 121.391 64.1127 121.493 64.4638 121.495C70.7704 121.381 76.9831 119.944 82.6998 117.279C88.4164 114.613 93.5103 110.777 97.6518 106.019C97.8878 105.743 98.036 105.401 98.0772 105.04C98.1178 104.679 98.0498 104.313 97.881 103.99Z" fill="#FBE481"/>
<path opacity="0.5" d="M88.601 71.7748C87.6238 79.2662 88.9135 86.8786 92.3035 93.6306L97.4995 104.774C97.6475 105.093 97.7021 105.448 97.6571 105.797C97.6117 106.146 97.4686 106.475 97.2441 106.747C94.2071 110.291 90.6239 113.328 86.6298 115.744C86.0149 114.425 85.15 112.861 84.165 110.992L78.9689 99.8486C75.5531 93.1143 74.2431 85.5076 75.2108 78.0188C76.762 65.1988 79.5648 56.566 72.9659 42.4144C67.0596 29.7485 49.3222 17.2635 29.4912 22.3505C31.5082 20.8917 33.661 19.6304 35.9197 18.5841C58.4289 8.08793 79.7657 22.0373 86.3908 36.2447C93.0159 50.4523 90.1338 58.9634 88.601 71.7748Z" fill="#F8A547"/>
<path d="M88.157 71.5972C87.5553 77.5148 88.5944 83.4838 91.1602 88.8499C92.4939 91.7099 93.2733 93.3814 93.2733 93.3814L96.9738 104.566C97.1217 104.886 97.1764 105.241 97.1314 105.59C97.0861 105.939 96.943 106.268 96.7184 106.539C93.694 110.066 90.1267 113.088 86.151 115.491C86.0904 115.362 86.0472 115.269 85.9865 115.139C89.168 113.298 92.0807 111.026 94.6417 108.39C95.106 107.834 95.6483 108.124 95.3452 107.474L89.3437 94.6036C85.9556 87.8606 84.6628 80.2585 85.6315 72.7748C87.1823 59.955 90.0226 51.3052 83.4235 37.1533C76.8244 23.0016 56.2052 9.62197 34.1472 19.0486C34.6114 18.8321 35.0943 18.607 35.5586 18.3905C57.9762 7.89175 79.3315 21.8325 85.9219 35.9656C92.5123 50.0989 89.6996 58.7587 88.157 71.5972Z" fill="#FCA100"/>
<path d="M43.3079 92.5148C49.669 96.5782 54.6682 102.452 57.662 109.381L62.858 120.524C63.0103 120.844 63.2504 121.114 63.5505 121.303C63.8507 121.491 64.1982 121.59 64.5524 121.588C69.2078 121.525 73.823 120.716 78.2227 119.193C78.1621 119.063 78.1187 118.97 78.0581 118.84C74.4597 119.83 70.7472 120.346 67.015 120.372C66.2724 120.379 66.4737 121.732 66.1706 121.082L64.4968 113.226C62.5707 104.531 57.6276 96.799 50.544 91.4016C49.924 90.9448 49.2668 90.505 48.5823 90.0553C37.7745 82.9759 29.3229 79.5917 22.7238 65.4398C16.1248 51.2881 16.3705 28.2016 37.8633 17.3201C37.4176 17.528 36.9347 17.7531 36.4518 17.9783C31.2408 20.3157 26.6354 23.8175 22.9901 28.2141C19.3448 32.6108 16.7568 37.7851 15.4252 43.339C13.3757 51.5252 14.0873 60.1591 17.4494 67.8993C24.0486 82.0512 32.4816 85.4441 43.3079 92.5148Z" fill="white"/>
<path d="M37.0609 89.2035C36.8915 89.2844 36.7043 89.3207 36.5168 89.3089C36.3296 89.2975 36.1482 89.2384 35.99 89.1376C28.1033 84.2009 21.6487 79.5232 16.392 68.2501C13.8382 62.4399 12.7856 56.0811 13.3311 49.7579C13.3421 49.6101 13.3822 49.4659 13.4491 49.3336C13.516 49.2012 13.6084 49.0834 13.7209 48.9869C13.8334 48.8903 13.9638 48.8169 14.1047 48.7708C14.2456 48.7247 14.3943 48.7069 14.5421 48.7184C14.6876 48.7302 14.8293 48.7708 14.9591 48.8377C15.0889 48.9046 15.2042 48.9965 15.2983 49.1082C15.3924 49.2198 15.4635 49.349 15.5074 49.4882C15.5514 49.6275 15.5673 49.7741 15.5544 49.9195C15.037 55.8633 16.0211 61.8418 18.4163 67.3061C23.422 78.0408 29.3455 82.3554 37.1691 87.2538C37.2954 87.3287 37.4052 87.4286 37.4919 87.5473C37.5785 87.666 37.6401 87.8011 37.6729 87.9439C37.7059 88.0872 37.7095 88.2357 37.6835 88.3802C37.6574 88.5248 37.6022 88.6624 37.5215 88.7852C37.4129 88.9673 37.2526 89.1132 37.0609 89.2035Z" fill="#3E3126"/>
<path d="M91.3988 89.8471C91.1213 89.9424 90.8172 89.9255 90.552 89.8003C90.2866 89.6746 90.0806 89.4506 89.9777 89.1757C89.4298 87.6063 88.9774 86.005 88.6239 84.381C87.653 79.9417 87.4402 75.3701 87.9939 70.8599C88.231 68.8949 88.4655 67.0225 88.7632 65.1875C90.1786 55.3253 91.29 47.5267 85.8514 35.8635C79.4515 22.1389 58.8832 8.57736 36.9128 18.8223C28.6437 22.5272 22.0814 29.2218 18.5423 37.5632C18.4997 37.718 18.4244 37.8619 18.3217 37.9852C18.2189 38.1086 18.091 38.2085 17.9465 38.2784C17.802 38.3483 17.6442 38.3865 17.4837 38.3905C17.3231 38.3945 17.1636 38.3642 17.0159 38.3015C16.868 38.2388 16.7353 38.1453 16.6266 38.0272C16.5179 37.9091 16.4356 37.7691 16.3853 37.6166C16.3351 37.4641 16.318 37.3027 16.3352 37.1431C16.3524 36.9834 16.4035 36.8293 16.4851 36.6911C20.2284 27.8753 27.1502 20.7897 35.876 16.8413C59.1649 5.98149 80.9845 20.3841 87.7827 34.9629C93.507 47.2387 92.2854 55.7223 90.8711 65.5386C90.6293 67.3471 90.3304 69.2276 90.1119 71.1834C89.5988 75.4496 89.8028 79.7716 90.716 83.9707C91.0476 85.4996 91.4781 87.0059 92.0048 88.4794C92.0885 88.7422 92.0731 89.0264 91.9613 89.2783C91.8495 89.5303 91.6497 89.7329 91.3988 89.8471Z" fill="#3E3126"/>
<path d="M83.3738 118.166C77.4275 120.908 70.9733 122.378 64.4257 122.479C63.8598 122.485 63.3042 122.327 62.8261 122.025C62.348 121.722 61.9676 121.288 61.7312 120.774L57.834 112.416C57.753 112.156 57.7692 111.875 57.8795 111.626C57.9899 111.376 58.1868 111.175 58.4339 111.06C58.681 110.945 58.9615 110.923 59.2234 110.999C59.4854 111.075 59.7109 111.243 59.8583 111.472L63.7555 119.83C63.8139 119.953 63.9055 120.057 64.02 120.132C64.1345 120.206 64.2676 120.247 64.4041 120.251C70.5496 120.146 76.6044 118.75 82.1751 116.152C87.7456 113.555 92.7071 109.814 96.7375 105.173C96.8295 105.069 96.8896 104.94 96.9096 104.802C96.9295 104.664 96.9089 104.524 96.8505 104.397L91.1261 92.1212C91.0012 91.8534 90.9862 91.5473 91.0847 91.2688C91.1832 90.9903 91.3873 90.7618 91.6525 90.6321C91.9234 90.5057 92.2334 90.4922 92.5143 90.5947C92.7953 90.6967 93.0241 90.9063 93.1504 91.1773L98.9008 103.509C99.1367 104.027 99.2212 104.602 99.1442 105.166C99.0671 105.73 98.8317 106.261 98.4654 106.697C94.3154 111.557 89.1683 115.469 83.3738 118.166Z" fill="#3E3126"/>
<path d="M54.1217 103.293C53.8879 103.401 53.6237 103.425 53.3744 103.359C53.1252 103.294 52.9066 103.144 52.7563 102.935C50.874 100.343 48.6779 97.9953 46.2183 95.9445C46.1062 95.8513 46.0135 95.7368 45.9458 95.6079C45.8779 95.4786 45.8363 95.3375 45.8233 95.1924C45.8102 95.0473 45.826 94.901 45.8696 94.7618C45.9132 94.6227 45.984 94.4937 46.0777 94.3822C46.2681 94.1535 46.5412 94.0097 46.8373 93.9816C47.1334 93.9535 47.4286 94.0438 47.6585 94.2327C50.2667 96.4075 52.5917 98.9011 54.579 101.655C54.751 101.895 54.8219 102.194 54.7761 102.485C54.7303 102.777 54.5718 103.04 54.3346 103.216L54.1217 103.293Z" fill="#3E3126"/>
<path d="M81.3407 54.6635C81.1265 52.0808 79.4629 50.1107 77.6243 50.2629C75.7858 50.4155 74.4691 52.6331 74.6833 55.2158C74.8975 57.7985 76.5611 59.7685 78.3997 59.6163C80.2381 59.4637 81.5551 57.2465 81.3407 54.6635Z" fill="#FFB320"/>
<path d="M78.4966 47.0502C79.5224 46.5718 79.9661 45.3528 79.4877 44.327C79.0094 43.3012 77.7904 42.8575 76.7646 43.3359C75.7387 43.8142 75.295 45.0332 75.7734 46.059C76.2517 47.0849 77.4708 47.5285 78.4966 47.0502Z" fill="#FFB320"/>
<path opacity="0.75" d="M73.6777 49.6143C74.0882 49.4229 74.2656 48.9354 74.0742 48.525C73.8829 48.1149 73.3955 47.9374 72.985 48.1288C72.5749 48.3201 72.3974 48.8076 72.5887 49.2177C72.7801 49.6281 73.2676 49.8056 73.6777 49.6143Z" fill="#FFB320"/>
<path d="M75.3412 61.1334C76.0184 60.8176 76.311 60.013 75.9954 59.3362C75.6796 58.6589 74.8752 58.3658 74.198 58.6816C73.5211 58.9972 73.2282 59.802 73.544 60.4792C73.8596 61.1561 74.6644 61.449 75.3412 61.1334Z" fill="#FFB320"/>
<path opacity="0.35" d="M73.9504 41.6629C74.7095 41.309 75.0375 40.4069 74.6836 39.6479C74.3296 38.8888 73.4278 38.5603 72.6687 38.9143C71.9096 39.2682 71.5812 40.1705 71.9351 40.9295C72.289 41.6885 73.1913 42.0169 73.9504 41.6629Z" fill="#FFB320"/>
<path opacity="0.35" d="M70.6524 46.2274C71.2985 45.9262 71.578 45.158 71.2767 44.5118C70.9754 43.8656 70.2073 43.5861 69.5612 43.8874C68.9147 44.1888 68.6351 44.9569 68.9364 45.6031C69.2378 46.2493 70.0059 46.5289 70.6524 46.2274Z" fill="#FFB320"/>
<path opacity="0.35" d="M71.0305 54.5553C71.5744 54.3017 71.8093 53.6554 71.5559 53.112C71.3023 52.5681 70.6564 52.3331 70.1126 52.5867C69.5691 52.8401 69.3336 53.4861 69.5872 54.03C69.8407 54.5734 70.4871 54.8087 71.0305 54.5553Z" fill="#FFB320"/>
<path opacity="0.75" d="M58.5765 35.9454C58.987 35.754 59.1643 35.2664 58.973 34.8561C58.7817 34.4458 58.2942 34.2682 57.8837 34.4596C57.4736 34.6509 57.2962 35.1385 57.4875 35.5488C57.6788 35.9591 58.1664 36.1367 58.5765 35.9454Z" fill="#E2AB63"/>
<path opacity="0.35" d="M52.3106 31.0427C53.0697 30.6887 53.3981 29.7865 53.0442 29.0275C52.6903 28.2685 51.788 27.9401 51.0289 28.2941C50.2702 28.6479 49.9418 29.5501 50.2957 30.3091C50.6497 31.0681 51.5519 31.3965 52.3106 31.0427Z" fill="#E2AB63"/>
<path opacity="0.35" d="M53.7878 36.3909C54.4338 36.0896 54.7134 35.3215 54.4121 34.6754C54.1108 34.0291 53.3427 33.7496 52.6966 34.0509C52.0505 34.3522 51.7709 35.1203 52.0722 35.7665C52.3735 36.4126 53.1417 36.6922 53.7878 36.3909Z" fill="#E2AB63"/>
<path opacity="0.35" d="M60.5 41.3319C61.0439 41.0783 61.2789 40.4322 61.0254 39.8886C60.7719 39.345 60.1259 39.1097 59.5821 39.3633C59.0386 39.6167 58.8032 40.263 59.0567 40.8066C59.3102 41.3502 59.9566 41.5853 60.5 41.3319Z" fill="#E2AB63"/>
<path d="M84.9477 115.917C84.8437 115.965 84.7311 115.993 84.6164 115.997C84.5017 116.001 84.3873 115.983 84.28 115.942C84.1725 115.902 84.0744 115.84 83.9912 115.761C83.9079 115.682 83.8414 115.587 83.7953 115.482L70.5626 87.1045L66.5883 88.9578L79.6738 117.02C79.7328 117.222 79.7173 117.438 79.6305 117.63C79.5436 117.822 79.391 117.976 79.2003 118.065C79.0095 118.154 78.7931 118.172 78.5905 118.115C78.3878 118.058 78.2122 117.931 78.0951 117.756L65.0096 89.6939L61.1467 91.4952C59.7183 92.1613 58.0839 92.2328 56.6028 91.6937C55.1218 91.1546 53.9154 90.049 53.2494 88.6208L52.7818 87.618C52.1156 86.1894 52.0443 84.555 52.5834 83.074C53.1224 81.5929 54.2277 80.3868 55.6562 79.7207C57.0846 79.0546 58.719 78.9831 60.2001 79.5222C61.6811 80.0613 62.8873 81.1665 63.5535 82.5951L65.7965 87.4052L69.7708 85.552L67.5278 80.7419C66.9668 79.3279 66.9673 77.7531 67.5293 76.3399C68.091 74.9264 69.1721 73.7808 70.5503 73.1381C71.929 72.4952 73.5011 72.4037 74.9449 72.882C76.3889 73.3597 77.5955 74.3716 78.318 75.7103L78.7856 76.7131C79.4389 78.1262 79.5138 79.7388 78.9943 81.2066C78.4745 82.6739 77.4011 83.8801 76.0042 84.5671L72.2899 86.2991L85.5225 114.677C85.5798 114.794 85.6104 114.923 85.6116 115.054C85.6128 115.185 85.5851 115.315 85.5301 115.433C85.4751 115.552 85.394 115.657 85.2937 115.741C85.1928 115.825 85.0747 115.885 84.9477 115.917ZM71.405 84.7899L75.1194 83.0579C75.6258 82.8274 76.0814 82.4998 76.4605 82.0928C76.8399 81.6861 77.1347 81.2085 77.3288 80.6875C77.5227 80.1661 77.6119 79.6117 77.591 79.0562C77.5699 78.5003 77.4397 77.9541 77.2071 77.4492L76.7395 76.4464C76.2216 75.5115 75.3681 74.808 74.3517 74.4777C73.3354 74.1477 72.2317 74.215 71.2631 74.6667C70.2945 75.1183 69.5335 75.9205 69.133 76.9112C68.7327 77.9022 68.7234 79.008 69.1063 80.0058L71.405 84.7899ZM56.3923 81.2992C55.4255 81.7786 54.6804 82.6117 54.3113 83.6257C53.9424 84.6399 53.9775 85.7569 54.4099 86.7456L54.8775 87.7484C55.3407 88.7424 56.1742 89.5161 57.2 89.9039C58.2258 90.2917 59.3624 90.2628 60.3673 89.8237L64.0816 88.0916L61.882 83.3745C61.4188 82.3805 60.5853 81.6069 59.5595 81.2191C58.5338 80.8313 57.3971 80.8602 56.3923 81.2992Z" fill="#3E3126"/>
<path d="M68.6732 35.054C71.105 33.0401 70.9523 28.8425 68.3319 25.6785C65.7119 22.5143 61.6162 21.5821 59.1844 23.596C56.7526 25.6099 56.9052 29.8076 59.5256 32.9715C62.146 36.1355 66.2414 37.068 68.6732 35.054Z" fill="#FFB320"/>
<path d="M78.9063 126.284L78.7206 126.371C76.4675 126.866 74.1779 127.178 71.8745 127.302C71.0089 127.399 70.1377 127.177 69.4252 126.676C68.7127 126.175 68.208 125.431 68.0067 124.584C67.9251 124.335 67.9433 124.065 68.0575 123.83C68.1719 123.596 68.373 123.415 68.6186 123.326C68.7394 123.281 68.8679 123.26 68.9968 123.266C69.1256 123.272 69.252 123.303 69.3685 123.358C69.485 123.414 69.5893 123.492 69.6749 123.588C69.7605 123.684 69.826 123.797 69.8674 123.919C70.4117 125.474 71.6062 125.369 71.662 125.343C73.8759 125.178 76.0753 124.856 78.2432 124.377C78.5012 124.322 78.7706 124.37 78.9931 124.512C79.2156 124.653 79.3735 124.877 79.4328 125.134C79.4942 125.357 79.475 125.594 79.3789 125.805C79.2825 126.015 79.1152 126.185 78.9063 126.284Z" fill="white"/>
<path d="M80.3195 126.89L80.1709 126.959C77.4056 127.674 74.5736 128.1 71.7204 128.232C70.8412 128.275 69.969 128.056 69.2144 127.603C68.4596 127.149 67.8565 126.483 67.4811 125.686L65.749 121.972C65.6785 121.866 65.6316 121.747 65.6117 121.622C65.5917 121.496 65.599 121.368 65.6333 121.246C65.6674 121.123 65.7278 121.01 65.81 120.913C65.892 120.816 65.9943 120.738 66.1095 120.684C66.2246 120.631 66.3498 120.602 66.477 120.602C66.6041 120.601 66.7297 120.628 66.8455 120.68C66.9611 120.733 67.0642 120.809 67.1474 120.905C67.2307 121.001 67.2921 121.114 67.3276 121.236L69.0597 124.95C69.2871 125.446 69.6555 125.863 70.1191 126.15C70.5827 126.437 71.1204 126.58 71.6653 126.562C74.3923 126.386 77.0965 125.951 79.7406 125.26C79.8505 125.231 79.9649 125.224 80.0776 125.239C80.1901 125.254 80.2987 125.291 80.3968 125.348C80.4949 125.406 80.5808 125.482 80.6494 125.572C80.718 125.663 80.768 125.766 80.7965 125.876C80.847 126.074 80.8268 126.284 80.7399 126.469C80.6528 126.653 80.5044 126.803 80.3195 126.89Z" fill="#3E3126"/>
<path d="M85.8259 125.026C85.6239 125.085 85.4073 125.069 85.2156 124.982C85.024 124.896 84.8697 124.743 84.7806 124.552C84.6917 124.362 84.674 124.145 84.7307 123.943C84.7874 123.74 84.9147 123.564 85.0898 123.447C89.5228 121.305 93.513 118.348 96.8517 114.729C97.2203 114.325 97.4609 113.82 97.5426 113.279C97.6242 112.737 97.5433 112.185 97.3108 111.689L95.5787 107.975C95.508 107.869 95.461 107.749 95.4409 107.624C95.4212 107.498 95.4283 107.37 95.4626 107.248C95.4968 107.126 95.557 107.012 95.6392 106.915C95.7217 106.818 95.8238 106.74 95.9387 106.687C96.054 106.633 96.1795 106.605 96.3064 106.604C96.4334 106.603 96.5592 106.63 96.6748 106.683C96.7904 106.735 96.8936 106.812 96.9768 106.908C97.0599 107.004 97.1215 107.117 97.1573 107.239L98.8893 110.953C99.2572 111.755 99.3782 112.649 99.2369 113.52C99.0957 114.391 98.6983 115.2 98.0954 115.845C94.625 119.656 90.4609 122.771 85.8259 125.026Z" fill="#3E3126"/>
<path d="M89.0928 130.285C85.4744 131.909 81.5838 132.841 77.6223 133.033C76.8963 133.062 76.1782 132.876 75.5586 132.497C74.9387 132.117 74.4458 131.563 74.1419 130.903L72.8081 128.042C72.7375 127.937 72.6907 127.817 72.6707 127.692C72.6507 127.567 72.6581 127.438 72.6922 127.316C72.7265 127.193 72.7868 127.08 72.8689 126.983C72.9511 126.886 73.0532 126.808 73.1683 126.754C73.2835 126.701 73.4089 126.673 73.5359 126.672C73.6631 126.671 73.7887 126.698 73.9044 126.75C74.0202 126.803 74.1233 126.88 74.2065 126.976C74.2898 127.072 74.3512 127.184 74.3867 127.306L75.7205 130.167C75.8763 130.513 76.1321 130.805 76.455 131.005C76.7778 131.205 77.153 131.303 77.5324 131.288C81.2708 131.116 84.9431 130.24 88.3565 128.706C88.4623 128.635 88.5819 128.588 88.7073 128.568C88.8327 128.548 88.9611 128.556 89.0835 128.59C89.2058 128.624 89.3193 128.684 89.4161 128.766C89.513 128.849 89.5909 128.951 89.6447 129.066C89.6984 129.181 89.7266 129.307 89.7273 129.434C89.7279 129.561 89.7011 129.686 89.6487 129.802C89.5963 129.918 89.5195 130.021 89.4235 130.104C89.3275 130.187 89.2147 130.249 89.0928 130.285Z" fill="#3E3126"/>
<path d="M88.5721 130.527C88.4664 130.598 88.3467 130.645 88.2213 130.665C88.0959 130.685 87.9675 130.677 87.8452 130.643C87.7229 130.609 87.6094 130.549 87.5125 130.467C87.4157 130.384 87.3377 130.282 87.284 130.167C87.2302 130.052 87.202 129.926 87.2014 129.799C87.2007 129.672 87.2275 129.547 87.2799 129.431C87.3324 129.315 87.4091 129.212 87.5051 129.129C87.6011 129.046 87.714 128.984 87.8359 128.948C91.1998 127.323 94.2253 125.076 96.7534 122.326C97.0113 122.046 97.1784 121.695 97.233 121.318C97.2873 120.942 97.2265 120.558 97.059 120.216L95.7252 117.356C95.6545 117.251 95.6077 117.131 95.5876 117.006C95.5678 116.88 95.5749 116.752 95.609 116.629C95.6433 116.507 95.7037 116.394 95.7857 116.297C95.8682 116.2 95.9703 116.122 96.0852 116.068C96.2005 116.014 96.3259 115.986 96.4529 115.986C96.58 115.985 96.7056 116.012 96.8213 116.064C96.9371 116.117 97.0403 116.194 97.1234 116.29C97.2065 116.386 97.268 116.498 97.3037 116.62L98.6375 119.48C98.9452 120.135 99.0539 120.866 98.9497 121.582C98.8451 122.298 98.5327 122.968 98.0507 123.507C95.3569 126.418 92.1423 128.799 88.5721 130.527Z" fill="#3E3126"/>
<path d="M92.5659 138.414C89.9504 139.633 86.9575 139.764 84.2458 138.777C81.534 137.79 79.3252 135.766 78.1058 133.151C78.035 133.045 77.9882 132.925 77.9682 132.8C77.9482 132.674 77.9556 132.546 77.9898 132.424C78.0239 132.301 78.0843 132.188 78.1665 132.091C78.2487 131.994 78.3508 131.916 78.466 131.862C78.5812 131.809 78.7066 131.781 78.8336 131.78C78.9606 131.779 79.0862 131.806 79.2021 131.858C79.3177 131.911 79.4207 131.988 79.504 132.084C79.5872 132.18 79.6487 132.292 79.6844 132.415C80.7086 134.611 82.5638 136.311 84.8414 137.14C87.1192 137.969 89.6329 137.859 91.8297 136.835C94.0265 135.81 95.7266 133.955 96.5554 131.678C97.3847 129.4 97.2746 126.886 96.2503 124.69C96.1798 124.584 96.133 124.464 96.1129 124.339C96.0928 124.213 96.1003 124.085 96.1346 123.963C96.1686 123.84 96.229 123.727 96.3112 123.63C96.3933 123.533 96.4954 123.455 96.6107 123.401C96.7257 123.348 96.8511 123.32 96.9784 123.319C97.1053 123.318 97.231 123.345 97.3468 123.397C97.4624 123.45 97.5652 123.527 97.6488 123.623C97.7319 123.719 97.7933 123.831 97.8289 123.954C98.4327 125.248 98.7757 126.65 98.8379 128.077C98.9004 129.505 98.681 130.931 98.1922 132.274C97.7036 133.616 96.955 134.85 95.9897 135.903C95.0244 136.957 93.861 137.81 92.5659 138.414Z" fill="#3E3126"/>
<path d="M44.5313 93.9275C45.1467 93.6405 45.413 92.909 45.126 92.2937C44.8389 91.6779 44.1074 91.4117 43.492 91.6987C42.8766 91.9856 42.6103 92.7171 42.8974 93.3329C43.1844 93.9482 43.9159 94.2145 44.5313 93.9275Z" fill="#3E3126"/>
<path d="M56.5957 107.095C57.2111 106.808 57.4774 106.077 57.1904 105.461C56.9033 104.846 56.1718 104.579 55.5564 104.866C54.941 105.153 54.6747 105.885 54.9618 106.501C55.2488 107.116 55.9803 107.382 56.5957 107.095Z" fill="#3E3126"/>
<path d="M15.7147 47.4033C16.3301 47.1164 16.5964 46.3848 16.3094 45.7694C16.0225 45.154 15.2909 44.8878 14.6755 45.1747C14.0601 45.4617 13.7938 46.1932 14.0808 46.8086C14.3678 47.4241 15.0993 47.6903 15.7147 47.4033Z" fill="#3E3126"/>
<path d="M30.3791 73.0793L30.1748 73.1746C30.094 73.1799 30.0129 73.1691 29.9363 73.1431C29.8596 73.1166 29.7889 73.0757 29.7282 73.0221C29.6675 72.9685 29.6179 72.9032 29.5824 72.8304C29.5469 72.7575 29.5263 72.6787 29.5214 72.5977L29.1898 63.9344C29.1872 63.8524 29.2007 63.7708 29.2297 63.6941C29.2587 63.6175 29.3025 63.5472 29.3586 63.4874C29.4147 63.4277 29.4821 63.3796 29.5568 63.3458C29.6315 63.3121 29.7121 63.2934 29.7941 63.2908C29.876 63.2882 29.9576 63.3018 30.0343 63.3308C30.111 63.3598 30.1812 63.4036 30.241 63.4597C30.3008 63.5158 30.3489 63.5832 30.3826 63.6579C30.4164 63.7326 30.435 63.8132 30.4376 63.8951L30.7346 72.484C30.7422 72.6077 30.7124 72.7307 30.6488 72.8366C30.5854 72.9429 30.4914 73.0274 30.3791 73.0793Z" fill="#3E3126"/>
<path d="M32.8175 67.6898L32.6132 67.7851C32.5324 67.7905 32.4513 67.7796 32.3747 67.7536C32.2979 67.7272 32.2272 67.6862 32.1666 67.6326C32.1058 67.579 32.0562 67.5137 32.0207 67.4409C31.9853 67.3681 31.9647 67.2892 31.9598 67.2082L31.7953 62.4916C31.7898 62.4109 31.8007 62.33 31.8276 62.2537C31.8544 62.1774 31.8966 62.1074 31.9514 62.0479C32.0062 61.9885 32.0726 61.9409 32.1465 61.908C32.2203 61.8751 32.3002 61.8576 32.381 61.8567C32.4617 61.8511 32.5427 61.8621 32.619 61.8889C32.6952 61.9158 32.7652 61.9579 32.8247 62.0128C32.8841 62.0676 32.9317 62.134 32.9646 62.2078C32.9975 62.2818 33.015 62.3616 33.0159 62.4424L33.1915 67.0859C33.1995 67.2132 33.1677 67.3394 33.1006 67.4474C33.0337 67.5558 32.9347 67.6403 32.8175 67.6898Z" fill="#3E3126"/>
<path d="M31.6829 53.9548C32.2926 50.4653 30.8709 47.3018 28.5074 46.8889C26.1439 46.476 23.7337 48.97 23.1241 52.4595C22.5145 55.9489 23.9362 59.1124 26.2997 59.5253C28.6631 59.9382 31.0733 57.4442 31.6829 53.9548Z" fill="#FFEFAE"/>
<path d="M35.9933 42.9809C36.2972 41.2418 35.5855 39.6645 34.4038 39.4581C33.222 39.2516 32.0177 40.4941 31.7139 42.2333C31.4101 43.9724 32.1217 45.5496 33.3035 45.7561C34.4852 45.9626 35.6895 44.7201 35.9933 42.9809Z" fill="#FFEFAE"/>
</g>
</g>
<defs>
<clipPath id="clip0_7_73">
<rect width="78.879" height="134.433" fill="white" transform="translate(0 33.3357) rotate(-25)"/>
</clipPath>
</defs>
</svg>
