<svg width="575" height="352" viewBox="0 0 575 352" fill="none" xmlns="http://www.w3.org/2000/svg">
<mask id="mask0_7_69" style="mask-type:luminance" maskUnits="userSpaceOnUse" x="0" y="0" width="575" height="352">
<path d="M575 0H0V352H575V0Z" fill="white"/>
</mask>
<g mask="url(#mask0_7_69)">
<path d="M494.758 -41.882C535.558 -25.732 542.143 50.8839 529.232 110.445C516.321 170.007 484.043 212.384 463.901 254.117C443.76 295.719 435.883 336.546 411.353 341.714C386.822 346.753 345.505 316.262 294.117 330.345C242.602 344.557 180.887 403.213 158.421 397.399C135.826 391.586 152.481 321.3 125.885 260.059C99.2874 198.818 29.3085 146.751 48.417 134.735C67.3966 122.719 175.593 150.756 233.177 140.161C290.633 129.567 297.474 80.4707 338.403 33.571C379.203 -13.3288 454.088 -57.9029 494.758 -41.882Z" fill=""/>
<path fill-rule="evenodd" clip-rule="evenodd" d="M256.517 240.003C256.565 236.496 256.666 232.989 256.798 229.484C262.771 228.946 268.745 228.408 274.72 227.868C276.245 227.731 277.772 227.593 279.299 227.456C280.952 227.306 282.607 227.157 284.262 227.008C284.434 226.992 284.666 226.989 284.924 226.984C285.75 226.971 286.84 226.952 287.086 226.537C287.444 225.931 287.261 224.334 287.121 223.124C287.066 222.642 287.019 222.221 287.014 221.949C286.99 220.44 286.967 218.93 286.943 217.421C286.919 215.911 286.895 214.403 286.872 212.894C286.698 201.788 286.524 190.684 286.349 179.578C287.779 179.626 289.21 179.667 290.64 179.707C291.567 179.734 292.495 179.762 293.424 179.791C298.725 179.95 304.043 180.11 309.34 179.947C312.461 179.852 315.418 179.009 318.365 178.014C319.932 177.484 321.483 176.909 323.022 176.303C323.163 176.248 323.384 176.132 323.64 175.999C324.261 175.673 325.084 175.24 325.454 175.313C326.082 175.434 327.013 176.782 327.695 177.771C327.948 178.136 328.164 178.451 328.322 178.64C330.159 180.844 331.997 183.048 333.834 185.253L333.963 185.408C334.198 185.689 334.467 185.976 334.739 186.269C335.34 186.913 335.969 187.585 336.339 188.303C336.618 188.849 336.774 189.536 336.921 190.19C336.991 190.499 337.059 190.801 337.138 191.076C340.196 201.779 343.188 212.552 345.416 223.463C345.896 225.811 346.35 228.176 346.618 230.559C346.637 230.742 346.662 230.937 346.689 231.141C346.834 232.258 347.016 233.645 346.582 234.609C346.038 235.813 344.367 236.358 343.166 236.749C343.087 236.774 343.01 236.799 342.935 236.823C340.585 237.598 338.124 238.059 335.689 238.472C329.822 239.47 323.882 240.049 317.952 240.517C317.276 240.571 316.595 240.603 315.911 240.636C314.76 240.693 313.604 240.749 312.476 240.901C311.999 240.966 311.865 240.923 311.795 240.972C311.739 241.011 311.722 241.107 311.602 241.365C311.341 241.921 311.381 242.898 311.415 243.737C311.43 244.108 311.445 244.453 311.431 244.723C311.378 245.759 311.324 246.797 311.271 247.834C311.219 248.858 311.167 249.881 311.115 250.906C310.827 256.529 310.539 262.152 310.252 267.774C310.154 269.675 310.057 271.575 309.959 273.474C309.765 277.276 309.572 281.077 309.377 284.876C309.322 285.928 309.269 286.979 309.215 288.03C309.159 289.138 309.102 290.248 309.046 291.357C309.026 291.73 309.031 292.141 309.037 292.562C309.049 293.438 309.062 294.364 308.853 295.119C308.738 295.533 308.772 295.685 308.715 295.738C308.655 295.793 308.496 295.74 307.967 295.766C306.365 295.844 304.725 295.74 303.095 295.635C302.287 295.585 301.482 295.533 300.686 295.505C299.373 295.459 298.06 295.411 296.745 295.363C295.338 295.314 293.932 295.264 292.524 295.213C292.333 295.206 292.137 295.215 291.946 295.222C291.355 295.246 290.802 295.27 290.564 294.847C290.296 294.368 290.361 293.296 290.414 292.441C290.435 292.084 290.456 291.766 290.447 291.543L290.221 285.203L289.599 267.8C289.462 263.975 289.326 260.148 289.189 256.322C289.042 252.236 288.896 248.15 288.751 244.065C285.728 244.675 282.705 245.283 279.682 245.892L279.673 245.894C275.202 246.794 270.731 247.695 266.26 248.595C265.708 248.707 265.127 248.857 264.531 249.011C262.92 249.426 261.204 249.87 259.658 249.648C257.554 249.346 256.684 248.446 256.566 246.448C256.452 244.529 256.48 242.598 256.509 240.676C256.511 240.452 256.514 240.227 256.517 240.003ZM317.216 206.203L316.926 205.644L316.8 206.261L313.621 221.826L313.561 222.113L313.853 222.093L324.732 221.372L325.072 221.35L324.914 221.046L317.216 206.203ZM314.115 221.629L317.11 206.968L324.362 220.95L314.115 221.629Z" fill="#FF5678"/>
<path fill-rule="evenodd" clip-rule="evenodd" d="M407.877 80.0805C407.656 81.8117 407.813 83.699 405.861 84.1552C404.054 84.5778 402.072 84.4593 400.23 84.6073C398.16 84.7738 396.096 85.0012 394.03 85.2062C391.426 85.4645 391.798 84.4626 391.229 82.2361C390.707 80.2029 389.877 78.1737 389.186 76.1908C388.865 75.2693 388.482 74.4213 388.044 73.5527C387.649 72.7664 387.838 71.6969 387.41 71.036C385.951 68.7813 378.84 74.9471 378.179 73.7319C379.383 72.7941 381.465 71.7449 381.835 70.1402C382.269 68.2544 381.072 67.6912 379.567 68.3808C375.865 70.0783 371.593 71.405 367.557 72.0236C368.863 71.1499 380.671 64.2645 376.707 62.2221C375.815 61.7618 374.622 62.6282 373.817 62.9559C372.538 63.4764 371.203 63.8253 369.869 64.1663C368.462 64.5256 367.052 64.8712 365.638 65.1979C364.646 65.4271 362.878 66.2413 361.913 66.0404C360.931 65.8362 362.669 65.2266 362.954 65.083C364.194 64.4572 365.415 63.7849 366.626 63.1039C368.775 61.8958 370.76 60.4963 372.395 58.6283C373.628 57.2188 375.665 54.1408 374.806 52.1919C374.309 51.0622 373.218 50.0181 372.578 48.9478C371.829 47.6977 371.226 46.3653 370.576 45.0628C371.663 45.5414 372.884 45.6638 373.994 46.0933C375.103 46.5232 376.231 46.871 377.385 47.1905C379.701 47.8313 382.01 47.9452 384.305 48.4649C386.905 49.0531 389.611 49.7107 392.251 50.0506C394.55 50.3461 396.616 50.9759 398.586 52.2303C402.607 54.7927 405.397 58.4739 406.808 63.0261C407.635 65.693 407.836 68.4754 407.934 71.2499C408.036 74.1753 408.251 77.168 407.877 80.0805ZM385.308 80.2957C382.499 82.3449 379.225 83.9464 376.211 85.6898C374.487 86.687 372.725 87.619 370.966 88.5539C369.719 89.2172 368.202 90.438 366.828 90.7782C365.958 90.9936 366.023 91.0101 365.473 90.2167C364.947 89.459 364.488 88.6435 363.995 87.8633C363.089 86.4248 362.173 84.9917 361.256 83.5586C359.203 80.346 357.155 77.1339 354.997 73.9897C352.833 70.8348 350.757 67.6218 348.66 64.4221C347.686 62.9345 346.717 61.4412 345.683 59.9945C344.893 58.8897 342.87 57.2048 343.831 55.9042C344.724 54.6961 346.759 53.6924 347.962 52.778C349.431 51.6615 350.91 50.5564 352.377 49.4342C355.529 47.0218 358.599 44.5044 361.748 42.0888C364.42 46.7815 367.565 51.1808 370.736 55.5436C367.869 57.3757 364.971 59.1173 361.948 60.6857C359.717 61.8442 356.302 63.4095 354.891 65.607C353.502 67.7708 354.868 70.2675 357.342 70.3072C358.823 70.3308 360.3 69.9382 361.751 69.714C362.798 69.552 364.711 68.796 365.658 69.329C363.958 70.4135 357.798 73.5747 361.118 76.3459C363.493 78.3271 367.505 75.4361 370.071 76.0311C369.289 77.5326 368.477 79.9279 370.646 80.7445C372.452 81.4244 374.815 80.1575 376.439 79.4855C377.614 79.0001 378.78 78.4984 379.935 77.9685C380.853 77.5469 381.952 76.693 382.933 76.5111C384.078 76.2986 386.409 79.4919 385.308 80.2957ZM333.1 190.968C334.706 190.673 335.532 190.009 336.039 191.961C336.492 193.712 336.94 195.396 337.524 197.113C335.015 197.33 332.8 198.53 330.97 200.216C329.668 201.419 327.076 204.289 327.717 206.303C329.278 211.196 337.164 200.219 338.102 199.046C339.248 200.725 339.67 202.921 340.241 204.841C340.646 206.206 342.152 208.825 340.161 209.157C337.367 209.624 332.123 210.665 332.454 214.626C332.846 219.303 338.79 219.278 342.124 219.488C344.003 219.605 344.012 221.115 344.28 222.801C344.4 223.556 344.774 224.575 344.134 225.128C343.565 225.619 341.824 225.632 341.084 225.792C338.928 226.254 336.772 226.727 334.617 227.191C332.169 227.716 330.874 226.98 328.586 226.309C327.738 226.059 326.887 226.165 326.825 225.215C326.787 224.633 327.356 223.732 327.544 223.155C328.282 220.875 328.91 218.527 329.123 216.133C329.431 212.654 329.045 207.438 324.766 206.759C322.731 206.435 322.339 206.331 321.419 204.417C320.425 202.35 318.846 200.433 319.228 198.051C319.505 196.324 319.04 193.057 320.14 191.625C320.648 190.963 321.641 190.569 322.318 190.083C323.181 189.463 324.011 188.8 324.816 188.107C325.492 187.522 326.317 186.383 327.085 185.962C328.02 185.446 328.05 185.797 328.723 186.602C329.715 187.79 331.294 191.296 333.1 190.968ZM337.641 198.696C337.084 199.822 335.798 200.868 334.978 201.807C334.154 202.752 333.374 203.75 332.454 204.606C331.441 205.549 327.847 207.824 328.638 204.761C329.255 202.377 331.562 200.448 333.591 199.258C333.984 199.028 338.585 196.793 337.641 198.696ZM341.575 210.042C341.931 211.637 342.123 213.28 342.427 214.887C342.583 215.709 343.446 217.693 343.094 218.482C342.499 219.821 337.135 218.236 336.022 217.776C333.377 216.679 332.162 213.863 334.602 211.859C335.528 211.099 341.218 208.447 341.575 210.042ZM345.091 229.197C345.389 230.72 346.264 232.131 344.819 233.284C343.619 234.238 341.653 234.891 340.175 235.232C338.161 235.694 337.512 234.564 336.446 233.111C335.3 231.548 334.079 230.037 332.812 228.571C336.79 227.679 340.767 226.788 344.744 225.897C344.743 227.005 344.877 228.11 345.091 229.197ZM335.56 236.264C333.485 236.157 331.254 236.781 329.151 236.946C326.523 237.152 323.903 237.451 321.274 237.628C321.948 235.476 323.157 233.556 324.105 231.524C325.054 229.484 325.721 229.264 327.904 229.106C329.929 228.961 331.357 228.263 332.851 229.982C334.405 231.77 335.813 233.713 337.231 235.608C336.749 235.932 336.172 236.297 335.56 236.264ZM320.733 236.704C320.22 237.077 318.643 236.015 318.111 235.81C317.076 235.41 316.847 235.281 316.306 234.271C315.843 233.403 315.105 232.415 314.959 231.423C314.768 230.118 315.345 228.397 315.556 227.097C316.116 228.449 317.955 228.607 319.197 228.828C320.136 228.995 322.919 228.729 323.628 229.398C324.411 230.138 322.97 232.201 322.594 232.979C322.147 233.907 321.593 236.076 320.733 236.704ZM319.73 237.776C319.114 237.876 317.342 238.489 317.377 237.363C317.418 236.076 319.855 237.464 319.73 237.776ZM316.606 237.708C316.494 238.792 314.166 238.701 314.112 237.748C314.022 236.139 316.785 235.978 316.606 237.708ZM313.945 208.499C313.349 210.196 309.723 210.803 308.331 211.325C307.06 211.802 303.26 214.006 301.949 213.206C306.387 210.153 310.935 207.161 314.696 203.262C314.851 204.225 314.616 205.028 314.332 205.94C314.077 206.764 314.208 207.747 313.945 208.499ZM312.841 214.687C312.202 218.845 311.575 223.057 310.711 227.172C309.064 226.669 307.706 225.647 305.975 225.292C304.396 224.968 302.766 224.959 301.173 225.197C297.78 225.701 294.756 227.381 291.796 229.019C291.522 226.168 290.957 223.116 291.023 220.255C291.078 217.879 295.141 217.175 296.984 216.194C298.098 215.6 299.107 214.765 300.377 214.558C301.684 214.344 302.945 214.351 304.236 213.951C307.289 213.008 310.161 211.514 313.151 210.4C313.397 211.828 313.056 213.282 312.841 214.687ZM309.988 232.281C309.852 233.227 310.023 234.914 309.304 235.633C308.627 236.311 307.18 236.334 306.286 236.518C303.565 237.079 300.846 237.644 298.13 238.222C296.913 238.481 295.696 238.728 294.477 238.958C293.895 239.069 292.433 239.628 291.943 239.164C291.478 238.724 291.824 237.317 291.849 236.726C291.9 235.547 291.967 234.365 291.892 233.186C291.75 230.922 291.876 230.055 293.979 228.885C296.215 227.642 298.523 226.789 301.039 226.328C303.585 225.861 306.013 226.117 308.437 227.096C309.111 227.368 310.123 227.704 310.438 228.433C310.864 229.423 310.132 231.278 309.988 232.281ZM306.925 268.753C305.926 269.38 303.756 269.273 302.611 269.4C300.76 269.605 298.897 269.487 297.06 269.202C295.676 268.988 293.611 268.689 292.55 267.716C291.044 266.335 292.782 266.272 293.936 266.369C297.289 266.652 300.683 266.454 304.033 266.211C304.685 266.165 306.436 265.591 307.066 265.86C307.869 266.202 307.623 268.316 306.925 268.753ZM305.023 291.082C298.777 290.474 295.157 285.297 292.892 280.004C291.675 277.162 292.114 274.181 291.995 271.177C291.973 270.628 291.628 269.266 292.192 268.855C292.721 268.47 294.865 269.661 295.444 269.803C298.415 270.533 301.7 270.603 304.677 269.893C305.967 269.587 306.688 269.018 307.098 270.296C307.428 271.327 306.888 273.226 306.828 274.306C306.727 276.174 307.018 291.275 305.023 291.082ZM292.546 291.088C292.522 290.181 292.066 281.016 292.509 280.989C293.826 283.834 295.18 286.38 297.578 288.473C298.804 289.543 300.182 290.506 301.715 291.08C302.29 291.296 305.554 291.46 305.713 292.175C305.993 293.427 303.765 292.921 303.104 292.82C302.575 292.738 302.097 292.512 301.577 292.417C300.586 292.237 299.651 292.48 298.655 292.499C297.145 292.53 295.659 292.371 294.147 292.502C292.764 292.621 292.583 292.463 292.546 291.088ZM293.468 249.982C298.816 248.251 303.284 251.529 306.106 255.816C307.715 258.263 308.074 259.971 307.794 262.868C307.693 263.905 307.878 264.607 306.926 265.029C305.984 265.447 303.844 265.136 302.823 265.184C299.891 265.322 296.971 265.503 294.039 265.329C292.133 265.216 291.864 264.894 291.897 263.042C291.937 260.815 291.751 258.597 291.626 256.365C291.49 253.952 290.661 250.89 293.468 249.982ZM291.719 246.773C291.722 245.136 291.623 243.457 291.724 241.823C291.824 240.202 292.512 240.282 294.04 240.005C297.35 239.406 300.655 238.737 303.92 237.925C305.21 237.604 306.669 236.987 308.015 236.982C309.426 236.976 309.352 237.703 309.258 238.954C309.049 241.726 308.541 244.456 308.386 247.213C308.22 250.188 308.134 253.202 308.147 256.179C308.152 257.186 308.395 257.93 307.54 256.99C306.681 256.047 306.262 254.545 305.497 253.486C303.929 251.316 301.598 249.572 299.012 248.837C297.583 248.431 296.078 248.36 294.621 248.654C294.178 248.744 291.964 249.803 291.681 249.593C291.491 249.452 291.719 246.839 291.719 246.773ZM311.28 303.508C313.4 305.028 315.748 306.256 318.126 307.323C319.464 307.923 324.758 309.186 324.928 310.536C325.018 311.256 324.14 312.064 323.566 312.148C322.836 312.257 321.636 311.781 320.893 311.69C318.193 311.362 315.497 311.36 312.862 310.608C307.6 309.104 302.146 308.68 296.831 307.37C295.566 307.059 294.299 306.766 293.027 306.484C291.82 306.216 291.279 306.262 291.236 304.97C291.142 302.136 291.955 299.231 291.961 296.361C296.261 296.852 300.576 296.846 304.888 297.25C306.736 297.423 306.693 297.774 307.502 299.39C308.343 301.066 309.774 302.429 311.28 303.508ZM290.312 211.401C290.257 210.351 290.215 209.299 290.12 208.253C290.056 207.549 289.415 205.583 289.777 205.036C290.206 204.386 290.639 204.783 291.408 204.765C292.423 204.74 293.271 204.333 294.107 203.799C295.691 202.787 296.867 201.456 297.895 199.904C298.799 198.537 298.632 196.669 298.62 195.034C298.592 190.801 298.899 186.673 298.642 182.423C298.523 180.47 300.188 181.667 301.533 181.92C303.731 182.334 306.122 182.048 308.357 182.053C308.273 182.573 303.703 183.865 302.965 184.358C301.075 185.616 299.973 187.629 300.145 189.924C300.491 194.541 305.571 195.315 309.285 195.324C306.204 198.049 303.18 200.647 300.759 204.011C298.975 206.49 295.83 211.38 298.749 214.124C296.169 215.59 293.612 217.221 290.695 217.926C290.564 215.752 290.425 213.576 290.312 211.401ZM289.141 127.106C290.192 127.781 290.633 126.826 291.432 126.332C292.558 125.635 292.929 125.704 293.073 124.148C293.336 121.263 292.124 118.651 290.602 116.29C289.909 115.217 289.22 113.939 288.243 113.1C287.353 112.335 286.453 112.599 285.627 111.808C285.303 111.497 285.373 111.058 284.838 111.071C284.485 111.079 283.629 112.172 283.336 112.414C282.417 113.176 281.292 113.756 280.086 113.128C278.332 112.213 278.895 108.892 280.259 107.817C281.309 106.989 282.549 107.117 283.743 106.983C284.639 106.883 284.826 106.922 284.458 105.895C284.199 105.177 283.604 104.616 283.31 103.912C282.744 102.562 282.867 100.922 282.623 99.4927C282.404 98.2126 281.891 96.8278 281.909 95.5276C281.934 93.872 282.475 93.4418 283.907 92.9775C285.296 92.5281 286.445 91.5369 287.628 90.7042C288.966 89.7613 290.432 89.1388 291.808 88.2781C292.741 87.6935 293.344 86.5118 294.37 87.0639C295.591 87.7197 296.88 89.6184 297.919 90.5888C296.401 91.5535 296.047 91.9753 296.256 93.8637C296.448 95.5948 296.8 97.1376 298.122 98.3436C298.63 98.8072 299.578 99.1782 299.971 99.7127C300.43 100.335 300.132 99.7864 300.074 100.489C300.043 100.868 299.744 101.116 299.808 101.554C300.101 103.5 302.333 102.352 303.253 101.676C306.54 99.2606 300.402 97.3429 298.944 96.4632C297.938 95.8552 297.439 93.9153 299.034 94.4307C300.096 94.7735 302.492 97.6799 302.736 95.0308C305.368 96.5606 306.991 99.8111 309.197 101.866C310.788 103.349 312.926 104.993 311.663 107.36C310.053 110.377 306.862 111.747 303.949 113.049C301.123 114.312 301.711 117.885 303.22 120.072C304.093 121.337 305.237 122.078 306.614 122.692C308.021 123.32 308.312 124.057 308.619 125.514C308.961 127.129 308.599 127.78 307.201 128.615C305.837 129.43 304.41 130.22 302.954 130.858C299.804 132.237 296.536 132.324 293.186 132.795C292.011 132.959 290.885 133.303 290.245 132.137C289.525 130.826 289.473 128.568 289.141 127.106ZM288.635 120.83C287.846 120.414 285.943 121.796 284.947 121.857C283.333 121.954 282.276 121.917 280.844 122.773C278.139 124.392 275.893 126.475 273.724 128.735C271.281 131.28 268.851 133.838 266.415 136.391C265.311 137.547 264.201 138.697 263.081 139.836C262.198 140.733 261.333 141.995 260.24 142.636C260.296 141.875 260.763 141.337 260.928 140.632C261.024 140.219 260.856 139.869 260.919 139.475C260.938 139.346 261.283 138.901 261.335 138.755C261.474 138.369 261.645 137.988 261.81 137.587C261.966 137.213 261.942 136.826 262.1 136.435C262.261 136.033 262.703 135.766 262.856 135.37C263.304 134.209 262.562 133.671 261.373 133.698C261.838 131.376 262.042 130.24 264.466 129.421C266.785 128.639 269.047 127.761 271.177 126.538C273.066 125.453 274.642 123.889 276.46 122.679C278.087 121.596 280.112 120.461 280.095 118.24C281.016 118.866 281.881 119.393 282.937 118.77C283.827 118.243 283.945 117.82 284.975 117.72C285.814 117.64 286.335 117.618 287.086 117.988C287.968 118.423 288.088 118.726 288.602 117.445C289.186 117.937 290.662 119.987 290.613 120.798C290.587 121.245 290.518 121.447 289.966 121.565C289.18 121.732 289.211 121.134 288.635 120.83ZM284.958 242.148C284.574 242.737 282.958 242.629 282.332 242.62C280.428 242.596 279.763 240.996 278.928 239.451C277.61 237.013 275.642 231.951 277.803 229.393C279.509 227.375 282.83 229.918 283.993 231.443C284.997 232.76 284.699 234.735 284.792 236.316C284.871 237.648 285.716 240.987 284.958 242.148ZM279.757 243.03C278.995 243.793 276.524 243.631 275.516 243.795C273.715 244.086 271.926 244.437 270.18 244.969C268.879 245.365 267.594 246.431 267.251 244.617C266.963 243.093 267.107 241.262 267.134 239.723C267.163 238.062 267.337 236.423 267.481 234.769C267.579 233.651 267.336 231.593 268.246 230.735C269.033 229.996 270.944 229.924 271.964 229.679C273.64 229.277 275.389 228.749 277.13 228.929C276.114 231.689 276.028 234.585 277.118 237.336C277.429 238.121 280.227 242.56 279.757 243.03ZM266.954 232.033C266.529 236.185 266.103 240.364 266.511 244.538C266.535 244.786 266.832 245.927 266.703 246.106C266.569 246.29 265.513 246.385 265.272 246.442C264.319 246.669 263.367 246.909 262.407 247.109C260.54 247.5 260.296 246.32 259.929 244.587C259.145 240.875 260.666 236.85 261.589 233.285C262.039 231.548 262.371 231.349 264.077 231.205C265.263 231.105 267.134 230.269 266.954 232.033ZM259.742 247.526C259.028 248.176 258.315 245.109 258.252 244.797C258.003 243.557 258.141 242.297 258.145 241.037C258.151 239.07 258.001 237.11 257.998 235.151C257.997 234.091 257.204 231.926 258.456 231.365C258.823 231.2 260.283 231.269 260.616 231.486C261.303 231.935 261.032 232.226 260.828 233.009C260.371 234.766 259.977 236.531 259.579 238.303C259.188 240.038 258.803 241.71 258.989 243.503C259.052 244.096 260.197 247.111 259.742 247.526ZM282.502 228.177C284.241 227.686 284.335 229.02 284.332 230.298C284.066 230.094 281.594 228.433 282.502 228.177ZM259.231 134.443C258.805 135.147 256.104 135.339 255.334 135.524C253.815 135.888 252.297 136.249 250.784 136.628C247.947 137.338 245.181 138.139 242.272 138.51C243.869 135.951 244.367 133.742 244.07 130.548C243.694 126.517 243.219 122.526 242.29 118.579C241.377 114.687 240.319 110.822 239.299 106.956C238.798 105.057 238.257 103.194 237.59 101.346C237.057 99.8649 236.224 98.0005 237.13 96.4822C239.429 98.1617 241.274 99.9713 242.586 102.523C243.991 105.258 245.218 108.066 246.849 110.682C247.595 111.879 248.465 112.97 249.263 114.128C249.738 114.817 250.083 115.811 250.687 116.392C251.384 117.062 252.128 117.378 252.526 116.248C252.952 115.034 251.59 112.634 251.188 111.494C250.216 108.744 249.252 105.999 248.504 103.177C247.896 100.897 246.895 98.1394 247.25 95.7331C247.601 93.3508 249.215 95.0558 250.032 96.1634C251.717 98.4468 252.725 101.109 253.832 103.697C254.849 106.076 256.036 108.343 257.161 110.666C257.553 111.475 258.068 113.563 259.095 113.803C260.586 114.153 260.458 112.051 260.317 111.199C259.372 105.545 256.905 100.132 256.393 94.3803C256.369 94.1055 256.012 91.9685 256.299 91.7902C256.855 91.4442 257.605 93.6119 257.844 94.1431C259.092 96.9059 259.961 99.8184 260.757 102.737C261.436 105.219 262.048 107.72 262.808 110.178C263.227 111.529 263.705 112.858 264.179 114.191C264.605 115.399 265.039 117.462 266.153 118.258C267.735 119.386 273.393 116.703 273.966 119.102C274.375 120.807 269.129 122.181 268.01 122.699C266.539 123.38 265.097 124.127 263.625 124.809C262.511 125.325 260.91 125.537 260.103 126.508C259.251 127.537 259.114 128.982 259.087 130.259C259.068 131.225 259.738 133.61 259.231 134.443ZM255.656 153.064C255.58 153.601 255.155 154.31 254.964 154.821C254.575 155.86 254.242 157.1 253.7 158.071C253.233 158.907 252.545 159.655 252.095 160.504C251.668 161.309 251.611 162.237 251.112 163.044C250.54 163.965 249.597 164.628 249.03 165.543C248.75 165.995 248.461 166.511 248.065 166.991C246.666 168.695 245.277 170.303 244.153 172.129C243.865 172.596 242.46 174.636 241.9 174.746C240.731 174.975 242.091 173.313 242.32 172.968C243.978 170.48 245.448 167.86 247.048 165.331C248.596 162.885 250.182 160.457 251.672 157.972C252.887 155.948 253.728 153.039 255.705 151.613C255.712 152.098 255.696 152.582 255.656 153.064ZM309.676 130.192C310.637 134.152 311.788 137.99 312.874 141.914C313.879 145.556 315.219 149.454 315.637 153.207C316.049 156.926 317 160.689 318.278 164.219C318.867 165.852 319.475 167.492 320.117 169.106C320.469 169.994 320.862 170.861 321.262 171.726C321.572 172.4 322.392 173.488 322.423 174.202C322.449 174.773 322.646 174.546 322.083 174.974C321.501 175.419 320.491 175.256 319.812 175.335C318.041 175.54 316.314 176.207 314.588 176.639C311.258 177.472 307.29 178.133 303.878 177.554C302.443 177.31 300.952 177.099 299.533 176.781C297.786 176.39 297.428 175.667 297.07 173.948C296.286 170.193 295.612 166.447 294.964 162.667C294.195 158.169 293.361 153.677 292.769 149.152C292.169 144.574 291.738 139.992 290.798 135.464C294.588 136.099 298.159 136.815 301.96 135.775C305.328 134.855 307.759 133.055 309.676 130.192ZM324.515 179.221C325.363 180.97 323.321 182.542 322.33 183.888C321.024 185.663 319.805 187.518 318.286 189.124C317.832 187.299 317.431 185.247 316.216 183.748C314.664 181.834 312.851 182.616 310.95 181.711C312.945 180.739 315.491 181.11 317.606 180.244C319.695 179.389 321.801 178.718 323.744 177.609C324.001 178.146 324.256 178.684 324.515 179.221ZM317.119 220.019C315.844 220.088 316.697 217.398 316.779 216.729C317.008 214.891 317.238 213.053 317.437 211.212C318.489 213.988 319.54 216.765 320.59 219.54C319.435 219.705 318.286 219.953 317.119 220.019ZM315.045 233.327C315.219 233.713 316.03 235.003 315.39 235.241C314.512 235.566 314.407 233.431 315.045 233.327ZM313.524 203.418C309.463 206.664 305.43 209.918 301.036 212.712C300.074 213.324 299.104 213.579 298.467 212.366C297.965 211.411 298.495 210.336 298.816 209.402C299.637 207.02 301.066 204.948 302.65 203.009C305.812 199.138 309.578 195.831 314.38 194.303C315.166 194.054 316.379 193.3 316.656 194.341C316.817 194.953 316.131 196.482 315.992 197.056C315.418 199.429 315.543 201.804 313.524 203.418ZM325.214 227.088C325.304 229.844 317.777 227.621 316.84 227.128C317.823 226.798 325.173 225.85 325.214 227.088ZM328.008 227.105C328.456 227.224 330.17 227.375 329.53 227.963C328.956 228.488 326.36 228.277 325.672 228.342C326.134 226.821 326.484 226.699 328.008 227.105ZM326.614 223.414C326.446 224.026 326.377 224.962 325.828 225.383C325.145 225.906 323.692 225.588 322.916 225.592C321.602 225.598 320.289 225.667 318.98 225.798C318.48 225.847 316.452 226.458 315.983 226.041C315.638 225.735 315.767 224.297 316.017 223.973C316.532 223.31 317.719 223.539 318.463 223.512C321.185 223.415 323.891 223.408 326.614 223.414ZM324.867 213.227C324.484 212.656 324.414 212.662 324.25 211.798C324.075 210.874 323.629 210.085 323.368 209.192C322.792 207.228 324.632 207.402 325.984 208.122C329.488 209.991 328.641 216.519 327.775 219.577C326.516 218.65 326.051 218.23 325.617 216.734C325.452 216.165 325.268 215.606 325.096 215.041C324.971 214.625 325.058 213.511 324.867 213.227ZM325.17 181.449C326.149 181.33 327.043 184.368 326.764 185.027C326.192 186.371 324.007 187.573 322.893 188.431C322.152 189.003 321.416 189.658 320.625 190.156C319.889 190.618 319.466 190.36 318.781 190.581C317.792 190.902 317.553 191.951 316.54 192.401C315.115 193.035 313.388 193.212 311.899 193.784C310.093 194.479 308.438 194.498 306.544 194.17C303.822 193.695 300.629 192.343 300.875 189.032C301.307 183.187 312.902 180.192 316.063 185.147C316.887 186.437 316.874 187.94 317.409 189.326C317.986 190.825 318.548 190.236 319.418 189.131C320.558 187.687 321.615 186.164 322.709 184.685C323.064 184.207 324.464 181.535 325.17 181.449ZM254.116 238.35C254.061 239.344 254.12 240.352 253.774 241.301C253.426 242.257 252.721 243.03 252.315 243.96C251.491 245.844 251.497 248.122 251.529 250.142C251.607 254.838 252.718 259.399 253.305 264.039C251.35 264.034 249.328 264.057 247.431 263.496C245.739 262.996 245.469 261.757 244.989 260.196C243.645 255.812 242.192 251.447 241.758 246.855C241.552 244.667 241.466 242.462 241.366 240.267C241.28 238.341 241.712 237.501 243.449 236.548C247.223 234.476 251.136 232.75 254.872 230.58C254.488 233.156 254.261 235.751 254.116 238.35ZM415.24 84.4801C414.322 84.3115 413.394 84.2058 412.467 84.0951C411.983 84.0371 410.475 84.1176 410.113 83.802C409.682 83.4264 410.428 80.5855 410.466 79.9758C410.699 76.3098 410.429 72.5304 410.092 68.8784C409.484 62.2668 407.408 56.1417 402.616 51.381C400.23 49.0111 397.548 47.131 394.29 46.2237C392.393 45.695 390.437 45.4132 388.534 44.9006C387 44.4864 385.568 44.0126 383.974 43.8486C380.795 43.5211 377.888 42.3187 374.787 41.6231C372.504 41.1113 368.833 39.8973 367.352 42.4773C366.188 41.1098 365.016 40.0829 363.547 39.0628C362.14 38.0856 361.91 37.1095 360.187 38.2379C356.839 40.4303 353.703 43.1049 350.576 45.5994C347.654 47.9291 344.829 50.3687 341.768 52.5111C338.645 54.6964 339.238 58.4048 340.706 61.4791C343.469 67.2658 347.729 72.2128 351.457 77.1731C353.794 80.2804 356.138 83.3916 358.464 86.505C360.687 89.4809 362.611 92.9249 365.21 95.5984C366.849 97.2837 368.805 95.0798 370.285 94.0615C372.119 92.7967 373.922 91.4849 375.761 90.2238C379.588 87.5968 383.683 85.1364 387.723 82.8497C388.016 83.6835 388.31 84.5175 388.604 85.3513C387.717 85.4179 386.519 85.2195 386.067 86.1744C385.421 87.5384 387.004 87.7174 387.282 88.4994C387.53 89.1979 386.514 91.0426 386.213 91.672C385.537 93.0901 384.592 94.3125 383.552 95.4799C379.438 100.099 374.231 103.404 368.949 106.553C363.296 109.923 357.237 111.981 351.047 114.153C347.901 115.256 344.635 115.769 341.386 116.476C338.258 117.158 335.131 118.052 331.933 118.31C325.391 118.835 318.448 119.229 311.985 117.817C311.278 117.662 310.53 117.328 309.809 117.264C309.233 117.213 308.805 117.455 308.26 117.486C307.091 117.553 306.421 116.506 305.491 117.479C305.026 117.965 305.019 118.782 304.371 117.874C303.547 116.719 305.653 116.495 306.433 116.166C309.062 115.058 311.174 112.827 312.844 110.572C314.514 108.319 314.753 105.912 313.737 103.273C312.721 100.636 310.411 98.8483 308.677 96.7067C307.838 95.6698 307.066 94.5726 306.145 93.6043C305.653 93.0871 304.861 92.5922 304.83 92.0707C304.795 91.4645 305.157 91.1634 304.94 90.4265C304.884 90.2348 304.643 90.126 304.593 89.9154C304.511 89.5798 304.636 89.2917 304.594 88.9647C304.496 88.2147 304.203 87.7436 303.787 87.129C303.528 86.745 303.149 85.9763 302.792 85.6887C302.167 85.1843 301.316 85.39 300.68 84.8788C299.674 84.0704 299.321 82.3668 298.433 81.3853C297.18 80.0042 296.913 81.3997 295.587 80.9594C294.453 80.5827 294.467 78.8745 293.55 78.2967C292.258 77.4828 291.172 78.98 290.025 79.3136C288.517 79.7523 289.097 78.0491 287.753 77.894C286.537 77.7536 284.856 80.2187 284.251 81.0941C283.635 80.3745 282.961 79.1484 281.85 79.5875C280.685 80.049 280.478 82.1952 279.626 82.9611C279.33 83.2273 279.393 83.4238 279.027 83.5464C278.556 83.7043 277.928 83.0195 277.319 83.2283C276.089 83.6494 276.239 85.2918 276.236 86.3557C274.786 86.1436 273.775 86.0354 273.289 87.6004C272.814 89.132 272.633 88.4561 271.104 88.9537C269.785 89.3824 269.601 90.6358 269.384 91.8614C269.249 92.6237 269.374 92.935 269.579 93.6298C269.837 94.5052 269.837 94.4941 269.415 95.3298C268.681 96.7877 268.637 98.3937 268.519 99.9982C268.395 101.71 268.096 103.269 268.582 104.941C268.883 105.976 268.906 107.384 269.919 107.963C270.32 108.193 271.002 108.067 271.343 108.295C271.995 108.73 271.798 109.392 272.232 110.027C272.558 110.502 273.083 110.548 273.447 110.933C273.843 111.353 273.867 111.864 274.093 112.376C274.761 113.892 275.391 114.625 273.212 114.712C271.868 114.765 270.433 115.169 269.094 115.045C267.514 114.899 267.122 114.015 266.618 112.669C264.084 105.885 262.722 98.5328 259.384 92.0821C258.65 90.6658 255.643 84.8796 254.371 89.0954C253.299 92.6512 254.705 96.9908 255.244 100.53C253.553 99.0032 252.927 96.2529 251.641 94.3885C250.692 93.0113 247.719 89.6288 245.978 91.567C244.604 93.0947 244.948 96.3338 245.202 98.1603C245.601 101.049 246.524 103.834 247.183 106.668C246.353 105.582 245.944 104.255 245.368 103.032C244.648 101.499 243.746 100.044 242.72 98.6961C241.822 97.5184 240.82 96.4238 239.732 95.4197C238.902 94.6517 237.414 92.9711 236.233 92.8801C233.195 92.6469 234.15 98.2244 234.614 99.819C235.572 103.124 236.612 106.338 237.356 109.709C238.811 116.297 240.575 122.732 241.646 129.403C241.883 130.882 242.17 132.062 241.585 133.484C241.069 134.737 240.536 136.235 239.585 137.198C237.434 139.379 235.649 141.708 234.04 144.336C232.319 147.151 230.547 149.998 229.14 152.985C228.494 154.361 227.965 155.848 227.222 157.17C226.552 158.363 225.746 159.307 225.269 160.628C222.99 166.942 221.304 173.145 220.532 179.831C219.898 185.32 220.489 192.621 227.109 193.906C230.15 194.495 232.882 193.146 235.624 192.031C238.459 190.879 240.511 189.006 242.825 187.015C245.699 184.542 248.685 182.221 251.59 179.788C254.497 177.353 257.181 174.654 260.072 172.194C262.928 169.765 265.512 167.183 267.98 164.36C270.43 161.562 272.42 158.459 274.792 155.621C274.783 159.297 274.238 162.939 274.085 166.609C273.946 169.974 273.941 173.337 274.078 176.699C274.213 180.061 273.326 183.26 273.319 186.615C273.311 189.887 273.182 193.14 273.111 196.409C273.078 197.875 272.792 199.52 273.338 200.934C273.747 201.992 275.031 202.322 276.128 202.606C277.821 203.046 282.916 202.198 283.672 204.01C284.085 204.999 283.669 206.797 283.702 207.89C283.755 209.689 283.821 211.488 283.883 213.288C283.947 215.145 284.008 217.004 284.076 218.862C284.136 220.499 284.453 222.322 284.257 223.943C284.088 225.332 283.278 225.151 281.997 225.222C280.061 225.329 278.126 225.415 276.189 225.5C273.349 225.625 270.384 225.567 267.661 225.903C266.517 226.044 265.266 225.985 264.06 226.214C262.548 226.502 261.15 226.575 259.616 226.651C258.379 226.712 256.788 226.623 255.816 227.537C255.479 227.856 255.403 228.235 255.164 228.587C254.716 229.251 254.965 229.077 254.23 229.225C251.362 229.807 248.636 230.464 245.83 231.443C244.425 231.932 243.122 232.591 241.711 233.052C240.474 233.455 239.567 233.953 238.955 235.168C237.864 237.339 238.14 240.48 238.219 242.819C238.344 246.468 239.153 249.942 240.028 253.473C240.936 257.144 241.649 260.914 243.416 264.288C243.997 265.396 244.624 266.811 245.811 267.389C247.342 268.134 249.698 267.682 251.369 267.685C252.492 267.687 255.497 268.073 256.335 267.13C257.147 266.219 256.33 263.648 256.216 262.516C255.813 258.55 255.09 254.548 255.1 250.555C256.015 251.908 257.602 254.245 259.19 252.17C259.58 251.66 259.429 251.423 260.122 251.128C260.506 250.964 261.315 250.863 261.733 250.891C262.302 250.93 262.513 251.159 263.035 251.047C263.497 250.948 264.017 250.533 264.548 250.406C271.12 248.843 277.656 247.157 284.257 245.764C286.003 245.395 285.755 246.738 285.871 248.247C285.998 249.919 285.755 251.605 285.986 253.257C286.188 254.695 286.344 256.096 286.061 257.541C285.726 259.247 285.942 260.67 286.275 262.36C287.559 268.872 287.329 275.936 287.619 282.555C287.77 286.003 287.447 289.523 287.77 292.953C287.892 294.248 288.616 294.963 288.908 296.141C289.244 297.494 288.327 299.216 288.048 300.526C287.488 303.157 286.505 306.923 288.304 309.211C289.277 310.449 290.551 310.627 291.99 311.045C293.712 311.546 295.41 312.129 297.14 312.603C303.462 314.334 310.294 314.673 316.773 315.628C318.359 315.862 319.831 315.841 321.428 315.729C322.411 315.661 324.837 315.985 325.656 315.396C326.094 315.079 325.871 314.685 326.094 314.299C326.41 313.751 326.793 313.528 327.333 313.188C328.225 312.623 329.258 312.293 329.408 311.127C329.776 308.273 326.213 306.759 324.307 305.525C321.871 303.947 318.93 303.337 316.345 302.049C314.919 301.338 313.544 300.534 312.17 299.728C311.574 299.378 310.365 298.981 309.95 298.431C309.527 297.871 309.941 297.069 310.117 296.266C310.842 292.95 310.597 289.558 310.971 286.206C311.345 282.849 311.244 279.472 311.367 276.098C311.494 272.622 311.78 269.156 312.002 265.686C312.204 262.482 312.409 259.225 312.441 256.017C312.474 253.043 312.88 250.124 312.975 247.13C313.007 246.113 312.826 244.27 313.499 243.409C314.09 242.654 316.048 242.749 316.962 242.617C319.421 242.26 321.764 241.946 324.197 241.73C329.986 241.217 336.428 240.84 341.903 238.82C344.159 237.987 347.164 236.85 347.913 234.255C348.774 231.272 347.65 227.604 347.613 224.554C347.573 221.299 346.629 218.121 345.922 214.965C345.16 211.569 344.682 208.114 343.859 204.73C343.103 201.624 341.879 198.875 340.721 195.927C340.251 194.732 337.576 190.611 338.406 189.595C338.853 189.048 340.464 188.91 341.116 188.66C342.524 188.12 343.935 187.507 345.233 186.738C346.967 185.714 350.762 184.017 350.937 181.739C351.104 179.56 348.966 177.359 347.879 175.651C346.127 172.893 343.92 170.484 342.252 167.674C338.883 161.994 336.203 155.774 333.747 149.654C332.46 146.451 332.041 143.436 331.829 140.018C335.562 140.027 339.36 140.487 343.069 139.965C347.105 139.396 351.145 138.438 355.147 137.649C362.431 136.212 369.426 134.589 376.174 131.352C382.495 128.321 388.907 125.004 394.14 120.193C396.845 117.706 399.605 115.17 401.941 112.326C404.342 109.404 406.148 106.083 407.999 102.803C410.043 99.1818 411.671 95.3764 412.956 91.4154C413.216 90.6192 413.217 89.6052 413.547 88.853C413.921 88.0037 414.602 87.9816 415.31 87.5341C416.308 86.9047 416.974 84.7985 415.24 84.4801Z" fill="black"/>
<path fill-rule="evenodd" clip-rule="evenodd" d="M328.353 43.9452C329.206 44.6789 332.882 47.2632 334.07 46.6348C335.536 45.8591 333.216 43.5222 332.591 42.9461C331.796 42.2133 328.956 39.9958 327.869 40.2017C325.694 40.6134 327.585 43.2849 328.353 43.9452Z" fill="black"/>
<path fill-rule="evenodd" clip-rule="evenodd" d="M330.168 70.4691C330.651 69.5195 331.933 69.1703 332.526 68.2513C333.239 67.1465 333.567 66.1797 333.304 64.825C331.478 65.4402 329.402 67.302 328.179 68.7581C327.159 69.9748 325.709 72.5175 328.372 72.5239C328.35 72.1619 328.326 71.7997 328.303 71.438C329.102 71.5543 329.806 71.1847 330.168 70.4691Z" fill="black"/>
<path fill-rule="evenodd" clip-rule="evenodd" d="M321.473 54.6694C322.649 55.008 323.621 54.96 324.822 54.9866C325.696 55.006 326.888 55.4861 327.595 54.945C326.967 54.5812 327.76 54.5612 327.604 54.2063C327.475 53.9107 327.227 54.0075 327.025 53.7682C326.308 52.9152 325.682 52.9256 324.543 52.7482C323.661 52.6101 322.362 52.2915 321.514 52.7308C320.622 53.1932 320.277 54.3255 321.473 54.6694Z" fill="black"/>
<path fill-rule="evenodd" clip-rule="evenodd" d="M338.225 80.831C338.986 80.1919 339.816 78.3416 339.97 77.387C340.03 77.013 339.761 76.7264 339.792 76.4512C339.855 75.9267 340.932 74.9125 339.803 74.4821C338.816 74.1053 337.889 77.0325 337.638 77.6712C337.381 78.3243 336.68 79.5969 336.896 80.2289C337.074 80.7531 337.711 81.2621 338.225 80.831Z" fill="black"/>
<path fill-rule="evenodd" clip-rule="evenodd" d="M347.331 41.2133C348.02 40.5736 348.455 39.8478 348.384 38.9681C348.327 38.2749 347.809 35.8853 347.225 35.9556C345.288 36.1897 346.159 42.3029 347.331 41.2133Z" fill="black"/>
<path fill-rule="evenodd" clip-rule="evenodd" d="M306.423 148.049C306.264 147.465 305.684 143.892 304.682 144.136C303.921 144.321 304.711 147.464 304.747 147.878C304.821 148.743 303.159 148.714 302.387 148.598C301.163 148.413 301.261 147.694 301.078 146.58C301.008 146.159 300.744 144.255 299.866 144.953C299.273 145.424 299.697 147.771 299.746 148.306C299.918 150.161 300.119 153.329 301.219 155.012C301.659 155.685 302.054 156.016 302.516 155.155C302.982 154.284 301.926 151.626 301.741 150.734C302.612 150.819 305.123 150.536 305.647 151.443C306.127 152.27 305.359 154.635 306.898 154.827C307.811 154.94 307.645 153.881 307.557 153.067C307.373 151.36 306.873 149.699 306.423 148.049Z" fill="black"/>
<path fill-rule="evenodd" clip-rule="evenodd" d="M308.761 147.223C307.75 147.679 309.019 154.342 310.497 154.127C312.223 153.876 309.725 146.787 308.761 147.223Z" fill="black"/>
<path fill-rule="evenodd" clip-rule="evenodd" d="M307.635 145.016C307.51 146.517 309.457 147.076 309.549 145.446C309.621 144.188 307.765 143.439 307.635 145.016Z" fill="black"/>
<path fill-rule="evenodd" clip-rule="evenodd" d="M296.946 105.243C297.834 108.559 305.926 109.97 304.836 105.497C304.29 103.257 302.009 105.247 300.419 104.987C299.388 104.818 296.319 102.904 296.946 105.243Z" fill="black"/>
<path fill-rule="evenodd" clip-rule="evenodd" d="M294.912 99.3267C295.292 97.5518 291.416 95.593 290.007 96.0816C287.949 96.7966 287.958 101.368 289.529 102.583C289.736 102.743 290.368 103.124 290.679 102.821C291.169 102.34 290.633 102.471 290.518 101.991C290.337 101.227 289.744 100.247 290.336 99.3787C291.453 97.7378 294.369 101.87 294.912 99.3267Z" fill="black"/>
<path fill-rule="evenodd" clip-rule="evenodd" d="M283.087 107.941C281.689 107.862 280.542 110.035 282.6 109.853C282.993 109.818 283.84 109.719 284.069 109.304C284.447 108.618 283.702 107.976 283.087 107.941Z" fill="black"/>
<path fill-rule="evenodd" clip-rule="evenodd" d="M350.922 56.1492C350.444 55.4562 349.44 54.341 348.577 55.0361C347.812 55.6525 347.946 57.1738 348.238 57.9299C349.028 59.9651 350.894 61.7782 353.006 60.6056C352.273 59.1346 351.86 57.5059 350.922 56.1492Z" fill="black"/>
</g>
</svg>
