<svg width="219" height="202" viewBox="0 0 219 202" fill="none" xmlns="http://www.w3.org/2000/svg">
<path fill-rule="evenodd" clip-rule="evenodd" d="M128.015 143.117C125.514 146.091 120.986 148.369 115.915 149.459C111.083 150.497 105.743 150.454 101.134 148.857L100.739 148.714C97.2933 147.412 93.9855 144.782 92.7291 142.039C92.2297 140.949 92.0607 139.84 92.4025 138.805C92.7102 137.874 93.4308 137.018 94.6311 136.282C95.0085 136.051 95.514 136.034 95.9952 136.112C96.5931 136.207 97.1819 136.462 97.5373 136.805C99.509 138.713 102.37 140.572 105.755 140.54C108.368 140.516 110.501 139.578 112.57 138.517L114.024 137.76C115.427 137.032 116.849 136.347 118.459 136.035C121.34 135.475 124.834 136.498 126.964 138.185C127.892 138.921 128.566 139.786 128.75 140.718C128.904 141.499 128.688 142.316 128.015 143.117ZM113.035 91.0959C118.758 94.2604 127.477 101.639 121.321 109.485C114.075 116.402 103.643 108.471 98.5012 104.884C93.7347 102.104 88.3787 109.254 92.8011 112.5C129.951 137.522 145.027 91.9232 115.93 87.3751C112.726 86.8739 111.537 90.117 113.035 91.0959ZM48.4791 42.4603L50.1231 42.0502L51.7994 41.6386L52.9329 41.366C60.7187 39.5118 69.3067 37.8801 77.0278 38.6767C79.8437 38.9677 82.1292 40.4092 82.5278 43.0932C82.8635 45.3579 81.2547 48.2797 78.5168 48.6823C69.4484 50.017 60.1648 49.584 51.0549 50.9601C46.518 51.6447 42.016 52.4948 37.4966 53.2607C34.06 53.844 30.509 54.0487 27.0429 54.5203L27.8393 54.6209C28.1182 54.6554 28.0485 55.0822 27.7734 55.0649C26.6309 54.9612 25.4867 54.945 24.3408 55.0179L23.8496 55.0546C23.1017 55.1504 22.6606 54.3383 23.3275 53.926C27.5506 51.3193 31.1342 48.4941 35.8628 46.5727C39.9525 44.9112 44.162 43.5413 48.4791 42.4603ZM119.361 38.4625C125.348 32.9568 138.079 35.0726 145.2 37.591C149.265 39.0292 153.13 40.8472 156.349 43.5669L156.663 43.8345L157.146 44.2575C159.32 46.1929 161.742 48.8561 161.397 51.6462C161.345 52.0716 161.09 52.5577 160.562 52.6431C157.71 53.103 154.908 51.7338 152.274 50.9099L150.53 50.3654C147.91 49.5535 145.274 48.7779 142.573 48.2178C139.215 47.5228 135.789 47.1209 132.341 47.1609C128.856 47.2022 125.112 48.0971 121.792 46.8382C118.09 45.4353 116.17 41.398 119.361 38.4625ZM60.2194 82.8663C58.692 84.2852 56.6748 85.0863 54.0931 84.6099C52.0757 84.2376 48.2346 82.3927 45.1661 79.5502C43.0669 77.6061 41.3116 75.1766 40.8345 72.3617C40.7237 71.7081 40.3423 71.2889 39.8418 71.0249C39.4464 70.8167 38.9251 70.7119 38.3573 70.7643C37.8752 70.8091 37.3633 70.9676 36.9678 71.1779C36.2154 71.5785 35.9076 72.1472 35.8451 72.5719C35.2415 76.6698 36.9812 80.7353 39.6931 84.1638C43.3529 88.7898 48.7275 92.1804 51.8864 92.9739C57.2923 94.3328 62.9883 93.2511 67.188 89.8281C70.5465 87.0911 72.2682 83.5254 73.8656 79.8584L74.1732 79.1476C74.5324 78.3155 74.8893 77.4896 75.2667 76.6726C76.0237 75.0352 75.7812 73.6198 75.0469 72.5168C74.2338 71.2944 72.7334 70.4347 71.0625 70.17C69.5182 69.9259 67.8647 70.1934 66.5605 71.0518C65.4579 71.7763 64.5691 72.9249 64.2538 74.6236C63.74 77.3861 62.5488 80.5554 60.4482 82.6464L60.2194 82.8663ZM152.915 66.8787C151.656 66.2817 150.67 66.1017 149.273 66.483C148.501 66.6939 147.737 67.0986 147.139 67.6426C146.546 68.1817 146.119 68.8518 145.953 69.5957C145.544 71.4309 144.44 73.149 142.867 74.2693C141.523 75.2269 139.825 75.7343 137.943 75.4475C135.912 75.1393 133.977 73.9542 132.644 72.5568C132.273 72.1672 131.969 71.7336 131.674 71.2944L131.498 71.0311C130.842 70.0445 130.203 69.1276 129.298 68.403C128.954 68.1279 128.437 67.937 127.936 67.937C127.732 67.937 127.526 67.9673 127.329 68.0231C125.307 69.8687 124.918 71.2696 124.983 72.6581C125.052 74.1148 125.683 75.5895 126.703 76.9656C129.096 80.1935 133.639 82.8401 136.705 83.4392C140.903 84.2603 145.072 83.2752 148.416 81.1414C151.855 78.9463 154.405 75.5385 155.199 71.6977C155.39 70.7725 155.309 69.7743 154.921 68.9083C154.543 68.0624 153.884 67.3378 152.915 66.8787Z" fill="black"/>
</svg>
