<svg width="278" height="431" viewBox="0 0 278 431" fill="none" xmlns="http://www.w3.org/2000/svg">
<g clip-path="url(#clip0_30_626)">
<path d="M257 278.761H169.827V417.023H257V278.761Z" fill="#B2B2B2"/>
<path d="M170.168 278.761H82.9952V417.023H170.168V278.761Z" fill="#D1D1D1"/>
<path d="M124.497 111.111L120.781 185.43L103.307 239.929H134.766L151.106 192.972L156.212 139.608L124.497 111.111Z" fill="#F7EBE7"/>
<path d="M123.619 370.872L129.945 400.333L108.698 402.856L102.656 373.849L123.619 370.872Z" fill="#FCC9A7"/>
<path d="M131.221 397.679C130.682 396.091 128.98 395.524 127.817 396.545C125.547 398.558 121.462 401.025 115.42 400.429C109.151 399.805 106.797 396.119 105.889 393.454C105.407 392.064 104.073 391.356 102.882 391.951L64.8412 411.062C62.5435 412.225 60.728 414.38 59.8202 417.074C58.9692 419.597 60.6712 422.319 63.0541 422.263L128.781 420.448C131.363 420.391 133.348 417.839 133.121 414.89L132.043 400.429C132.015 400.202 131.987 399.947 131.902 399.72L131.221 397.679Z" fill="#1F252A"/>
<path d="M123.25 228.417H73.9191C73.9191 228.417 43.878 226.744 42.0909 251.384C40.3038 276.025 86.1454 346.517 93.3223 384.173L134.568 380.77L104.868 278.379L178.736 278.804C184.211 278.832 189.658 278.038 194.821 276.252C209.203 271.261 231.159 264.116 219.188 224.532L123.25 228.417Z" fill="#092330"/>
<path d="M161.318 370.982L171.36 406.2L150.113 408.723L140.355 373.96L161.318 370.982Z" fill="#FCC9A7"/>
<path d="M172.637 403.528C172.098 401.94 170.396 401.373 169.233 402.394C166.964 404.407 162.879 406.874 156.837 406.279C150.568 405.655 148.213 401.969 147.305 399.303C146.823 397.914 145.49 397.205 144.298 397.801L106.258 416.912C103.96 418.075 102.144 420.23 101.237 422.923C100.386 425.447 102.088 428.169 104.471 428.112L171.333 426.298C173.914 426.241 175.899 423.689 175.672 420.74L173.432 406.279C173.403 406.052 173.375 405.797 173.29 405.57L172.637 403.528Z" fill="#1F252A"/>
<path d="M182.196 81.8916C183.302 82.9691 232.803 95.5872 232.803 95.5872L222.222 123.687L168.097 119.604L182.196 81.8916Z" fill="#F7EBE7"/>
<path d="M161.772 88.6705C161.772 88.6705 129.519 100.438 124.498 111.1C126.228 126.156 131.533 140.646 140.27 153.037C150.993 168.235 164.24 194.351 161.801 228.405H255.044C255.044 228.405 250.023 132.593 222.422 95.8161L161.772 88.6705Z" fill="#F7EBE7"/>
<path d="M172.352 103.861C181.514 101.99 187.415 93.0576 185.543 83.8989L180.068 57.1031L146.906 63.8798L152.381 90.6758C154.253 99.8345 163.189 105.732 172.352 103.861Z" fill="#FCC9A7"/>
<path d="M182.337 66.4735C182.337 66.4735 178.848 88.1936 161.941 89.498C147.133 90.6322 148.551 69.224 148.551 69.224L182.337 66.4735Z" fill="#F4BE9A"/>
<path d="M163.274 77.5862L166.196 76.9057C180.862 73.503 189.997 58.8717 186.592 44.2404L182.734 27.5391C179.33 12.8794 164.693 3.749 150.055 7.15163L147.133 7.83216C132.468 11.2348 123.333 25.8661 126.737 40.4975L130.595 57.1988C133.999 71.8584 148.637 80.9888 163.274 77.5862Z" fill="#FCC9A7"/>
<path d="M177.401 51.1951C176.72 52.3577 176.068 54.1157 175.841 56.7811C175.585 60.1554 173.883 63.3595 171.047 65.231C162.905 70.6185 156.693 56.9796 144.665 59.3898C144.665 59.3898 139.956 60.0987 139.02 65.3444C138.084 70.5618 131.531 61.4314 130.084 55.1932C128.637 48.9551 127.9 86.0721 157.515 82.9247C157.515 82.9247 172.465 82.4426 182.535 67.2159C183.642 65.5429 184.294 63.5864 184.351 61.5732C184.436 58.5959 184.01 54.0874 181.174 50.8549C180.181 49.664 178.195 49.8341 177.401 51.1951Z" fill="#1C2226"/>
<path d="M177.43 42.7678C177.43 42.7678 164.637 38.5429 166.793 19.8568C166.793 19.8568 135.021 49.9134 111.476 27.853C111.476 27.853 122.001 25.0458 126.341 17.8436C134.255 4.71508 157.006 -13.3755 175.218 7.55064C175.218 7.55064 197.373 4.11965 191.018 38.231L177.43 42.7678Z" fill="#1C2226"/>
<path d="M177.43 42.7738C178.65 47.9912 183.869 51.252 189.089 50.0611C194.337 48.8418 197.57 43.6245 196.379 38.4071C195.159 33.1897 189.94 29.9289 184.72 31.1198C179.472 32.3391 176.21 37.5564 177.43 42.7738Z" fill="#FCC9A7"/>
<path d="M161.261 102.826L174.962 103.081L165.374 122.93L155.02 103.903L161.261 102.826Z" fill="#0C2C40"/>
<path d="M186.707 82.7738L169.063 103.36L180.551 116.545L201.685 87.5091C201.685 87.5091 196.267 78.804 186.707 82.7738Z" fill="#FFF7F3"/>
<path d="M161.262 102.83L151.106 114.285L143.957 96.4213C143.957 96.4213 145.83 88.3968 151.673 89.928L161.262 102.83Z" fill="#FFF7F3"/>
<path d="M165.005 116.519C165.005 116.519 151.758 151.055 155.048 200.053L168.097 211.963L183.33 197.303L166.906 114.279L165.005 116.519Z" fill="#0C2C40"/>
<path d="M189.771 198.525L161.404 207.854L159.532 224.498L197.147 213.269L189.771 198.525Z" fill="#FCC9A7"/>
<path d="M165.631 218.865C165.631 228.59 157.744 236.501 147.986 236.501C138.256 236.501 130.342 228.619 130.342 218.865C130.342 209.139 138.228 201.228 147.986 201.228C157.716 201.228 165.631 209.11 165.631 218.865Z" fill="#FCC9A7"/>
<path d="M161.772 228.401H112.469C112.469 228.401 82.4281 226.728 80.641 251.368C78.8538 276.009 128.071 351.037 135.248 388.665L176.494 385.262L143.418 278.334L217.286 278.76C222.761 278.788 228.208 277.994 233.371 276.208C247.753 271.217 269.709 264.072 257.738 224.488L161.772 228.401Z" fill="#0C2C40"/>
<path d="M13.0419 141.282H98.2858C101.094 141.282 103.505 143.239 104.101 145.99L120.157 221.244C120.951 224.93 118.115 228.418 114.342 228.418H27.6795C24.8427 228.418 22.4032 226.405 21.8642 223.626L7.22664 148.371C6.48909 144.685 9.29742 141.282 13.0419 141.282Z" fill="#B2B2B2"/>
<path d="M8.13442 141.282H93.3498C96.1582 141.282 98.5697 143.239 99.1654 145.99L115.221 221.244C116.015 224.93 113.207 228.418 109.406 228.418H22.772C19.9352 228.418 17.4957 226.405 16.9567 223.626L2.31914 148.371C1.58158 144.685 4.38993 141.282 8.13442 141.282Z" fill="#D1D1D1"/>
<path d="M117.831 221.984H176.07C177.857 221.984 179.275 223.43 179.275 225.189C179.275 226.975 177.828 228.393 176.07 228.393H116.697L117.831 221.984Z" fill="#B2B2B2"/>
<path d="M60.8982 182.875C60.8982 188.008 56.7565 192.148 51.622 192.148C46.4876 192.148 42.3459 187.979 42.3459 182.875C42.3459 177.743 46.5159 173.603 51.622 173.603C56.7565 173.603 60.8982 177.743 60.8982 182.875Z" fill="white"/>
<path d="M212.465 122.353L243.612 172.627L169.063 199.224L179.275 221.285C179.275 221.285 243.016 214.139 273.823 190.406C276.66 188.222 278.078 184.678 277.596 181.134C276.149 169.792 269.965 142.259 243.612 103.128C238.251 95.1605 227.584 92.7503 219.273 97.5706C210.621 102.561 207.585 113.62 212.465 122.353Z" fill="#F7EBE7"/>
<path d="M188.891 192.148L243.611 172.64L216.237 128.434" stroke="#EADDD8" stroke-width="0.7599" stroke-miterlimit="10" stroke-linecap="round" stroke-linejoin="round"/>
<path d="M151.843 175.489L138.368 139.931" stroke="#EADDD8" stroke-width="0.7599" stroke-miterlimit="10" stroke-linecap="round" stroke-linejoin="round"/>
<path d="M189.77 219.793C189.77 219.793 231.641 214.547 252.746 202.468" stroke="#EADDD8" stroke-width="0.7599" stroke-miterlimit="10" stroke-linecap="round" stroke-linejoin="round"/>
</g>
<defs>
<clipPath id="clip0_30_626">
<rect width="278" height="431" fill="white"/>
</clipPath>
</defs>
</svg>
