<svg width="403" height="324" viewBox="0 0 403 324" fill="none" xmlns="http://www.w3.org/2000/svg">
<path d="M292 175L292.553 177.694L292.689 177.666L292.821 177.624L292 175ZM20.7384 322.612C21.9047 323.585 23.6388 323.428 24.6117 322.262L40.466 303.256C41.4389 302.09 41.2821 300.356 40.1158 299.383C38.9496 298.41 37.2154 298.567 36.2426 299.733L22.1499 316.627L5.2562 302.534C4.08993 301.561 2.3558 301.718 1.3829 302.884C0.410007 304.05 0.566767 305.785 1.73303 306.757L20.7384 322.612ZM25.2389 320.252C24.6898 314.179 25.6376 308.196 27.923 302.29L22.7937 300.305C20.2336 306.921 19.1287 313.751 19.7612 320.748L25.2389 320.252ZM30.6577 296.393C35.8607 286.763 44.5343 277.366 55.9143 268.308L52.4893 264.005C40.7773 273.327 31.4991 283.265 25.8188 293.779L30.6577 296.393ZM61.263 264.221C70.8738 257.158 82.0192 250.373 94.2402 243.908L91.6684 239.046C79.2738 245.603 67.8866 252.528 58.006 259.789L61.263 264.221ZM100.305 240.77C111.455 235.124 123.374 229.746 135.73 224.663L133.638 219.577C121.173 224.704 109.121 230.141 97.8201 235.863L100.305 240.77ZM142.063 222.099C154.024 217.329 166.327 212.838 178.678 208.647L176.911 203.438C164.481 207.656 152.087 212.181 140.026 216.99L142.063 222.099ZM185.156 206.477C197.702 202.33 210.241 198.498 222.465 195.006L220.954 189.717C208.665 193.228 196.053 197.082 183.429 201.255L185.156 206.477ZM229.063 193.145C242.244 189.474 254.982 186.213 266.877 183.391L265.608 178.04C253.646 180.877 240.839 184.156 227.588 187.846L229.063 193.145ZM273.506 181.844C280.189 180.309 286.564 178.924 292.553 177.694L291.447 172.306C285.414 173.545 278.998 174.94 272.276 176.483L273.506 181.844ZM292.821 177.624C299.305 175.596 305.435 173.392 311.228 171.032L309.153 165.938C303.507 168.239 297.522 170.391 291.179 172.376L292.821 177.624ZM317.525 168.346C330.531 162.542 341.717 155.908 351.295 148.666L347.978 144.279C338.757 151.251 327.936 157.677 315.284 163.323L317.525 168.346ZM356.673 144.398C367.577 135.313 376.143 125.407 382.762 115.097L378.134 112.125C371.819 121.961 363.627 131.445 353.153 140.173L356.673 144.398ZM386.323 109.186C393.149 97.087 397.447 84.582 399.855 72.3328L394.459 71.2717C392.153 82.9988 388.044 94.9416 381.533 106.484L386.323 109.186ZM401.006 65.538C402.985 51.6539 402.646 38.2559 400.943 26.3148L395.498 27.0913C397.136 38.5746 397.459 51.4469 395.561 64.762L401.006 65.538ZM399.805 19.5387C398.446 12.5222 396.632 6.11588 394.58 0.548841L389.42 2.45116C391.365 7.72692 393.101 13.8459 394.406 20.5844L399.805 19.5387Z" fill="#4F4F4F"/>
</svg>
